<svg width="791" height="484" viewBox="0 0 791 484" fill="none" xmlns="http://www.w3.org/2000/svg">
<rect width="791" height="484" rx="12" fill="white"/>
<path d="M30.948 114.684C31.46 114.684 31.916 114.796 32.316 115.02C32.716 115.244 33.028 115.56 33.252 115.968C33.476 116.376 33.588 116.844 33.588 117.372C33.588 117.892 33.472 118.36 33.24 118.776C33.008 119.192 32.684 119.516 32.268 119.748C31.852 119.98 31.384 120.096 30.864 120.096C29.84 120.096 29.048 119.74 28.488 119.028C27.936 118.316 27.66 117.3 27.66 115.98C27.66 115.036 27.788 114.224 28.044 113.544C28.3 112.864 28.672 112.344 29.16 111.984C29.648 111.624 30.228 111.444 30.9 111.444C31.356 111.444 31.808 111.532 32.256 111.708C32.712 111.884 33.1 112.124 33.42 112.428C33.556 112.556 33.624 112.692 33.624 112.836C33.624 112.956 33.592 113.056 33.528 113.136C33.464 113.216 33.388 113.256 33.3 113.256C33.188 113.256 33.072 113.212 32.952 113.124C32.256 112.556 31.58 112.272 30.924 112.272C30.212 112.272 29.656 112.596 29.256 113.244C28.856 113.892 28.656 114.8 28.656 115.968V116.124C28.84 115.676 29.136 115.324 29.544 115.068C29.96 114.812 30.428 114.684 30.948 114.684ZM30.816 119.268C31.36 119.268 31.796 119.096 32.124 118.752C32.452 118.408 32.616 117.952 32.616 117.384C32.616 116.816 32.448 116.364 32.112 116.028C31.784 115.684 31.348 115.512 30.804 115.512C30.252 115.512 29.8 115.688 29.448 116.04C29.104 116.384 28.932 116.832 28.932 117.384C28.932 117.944 29.104 118.4 29.448 118.752C29.8 119.096 30.256 119.268 30.816 119.268ZM37.7836 120.096C36.8156 120.096 36.0796 119.728 35.5756 118.992C35.0716 118.256 34.8196 117.184 34.8196 115.776C34.8196 114.36 35.0716 113.284 35.5756 112.548C36.0796 111.812 36.8156 111.444 37.7836 111.444C38.7516 111.444 39.4876 111.812 39.9916 112.548C40.4956 113.276 40.7476 114.348 40.7476 115.764C40.7476 117.18 40.4956 118.256 39.9916 118.992C39.4876 119.728 38.7516 120.096 37.7836 120.096ZM37.7836 119.268C38.4556 119.268 38.9516 118.984 39.2716 118.416C39.5916 117.848 39.7516 116.964 39.7516 115.764C39.7516 114.556 39.5916 113.672 39.2716 113.112C38.9596 112.552 38.4636 112.272 37.7836 112.272C37.1116 112.272 36.6156 112.556 36.2956 113.124C35.9756 113.684 35.8156 114.564 35.8156 115.764C35.8156 116.964 35.9756 117.848 36.2956 118.416C36.6156 118.984 37.1116 119.268 37.7836 119.268ZM44.9789 120.096C44.0109 120.096 43.2749 119.728 42.7709 118.992C42.2669 118.256 42.0149 117.184 42.0149 115.776C42.0149 114.36 42.2669 113.284 42.7709 112.548C43.2749 111.812 44.0109 111.444 44.9789 111.444C45.9469 111.444 46.6829 111.812 47.1869 112.548C47.6909 113.276 47.9429 114.348 47.9429 115.764C47.9429 117.18 47.6909 118.256 47.1869 118.992C46.6829 119.728 45.9469 120.096 44.9789 120.096ZM44.9789 119.268C45.6509 119.268 46.1469 118.984 46.4669 118.416C46.7869 117.848 46.9469 116.964 46.9469 115.764C46.9469 114.556 46.7869 113.672 46.4669 113.112C46.1549 112.552 45.6589 112.272 44.9789 112.272C44.3069 112.272 43.8109 112.556 43.4909 113.124C43.1709 113.684 43.0109 114.564 43.0109 115.764C43.0109 116.964 43.1709 117.848 43.4909 118.416C43.8109 118.984 44.3069 119.268 44.9789 119.268ZM52.1742 120.096C51.2062 120.096 50.4702 119.728 49.9662 118.992C49.4622 118.256 49.2102 117.184 49.2102 115.776C49.2102 114.36 49.4622 113.284 49.9662 112.548C50.4702 111.812 51.2062 111.444 52.1742 111.444C53.1422 111.444 53.8782 111.812 54.3822 112.548C54.8862 113.276 55.1382 114.348 55.1382 115.764C55.1382 117.18 54.8862 118.256 54.3822 118.992C53.8782 119.728 53.1422 120.096 52.1742 120.096ZM52.1742 119.268C52.8462 119.268 53.3422 118.984 53.6622 118.416C53.9822 117.848 54.1422 116.964 54.1422 115.764C54.1422 114.556 53.9822 113.672 53.6622 113.112C53.3502 112.552 52.8542 112.272 52.1742 112.272C51.5022 112.272 51.0062 112.556 50.6862 113.124C50.3662 113.684 50.2062 114.564 50.2062 115.764C50.2062 116.964 50.3662 117.848 50.6862 118.416C51.0062 118.984 51.5022 119.268 52.1742 119.268Z" fill="#535261"/>
<path d="M30.924 163.696C31.46 163.696 31.928 163.808 32.328 164.032C32.736 164.256 33.048 164.572 33.264 164.98C33.488 165.38 33.6 165.844 33.6 166.372C33.6 166.9 33.48 167.372 33.24 167.788C33 168.196 32.664 168.516 32.232 168.748C31.808 168.972 31.316 169.084 30.756 169.084C30.26 169.084 29.776 168.996 29.304 168.82C28.832 168.644 28.432 168.404 28.104 168.1C27.976 167.98 27.912 167.844 27.912 167.692C27.912 167.572 27.944 167.472 28.008 167.392C28.072 167.312 28.148 167.272 28.236 167.272C28.348 167.272 28.46 167.316 28.572 167.404C28.924 167.692 29.276 167.908 29.628 168.052C29.98 168.188 30.348 168.256 30.732 168.256C31.324 168.256 31.788 168.088 32.124 167.752C32.46 167.416 32.628 166.96 32.628 166.384C32.628 165.824 32.46 165.372 32.124 165.028C31.788 164.684 31.336 164.512 30.768 164.512C30.04 164.512 29.448 164.792 28.992 165.352C28.88 165.472 28.744 165.532 28.584 165.532C28.472 165.532 28.376 165.5 28.296 165.436C28.224 165.364 28.188 165.268 28.188 165.148V161.008C28.188 160.872 28.228 160.76 28.308 160.672C28.396 160.584 28.516 160.54 28.668 160.54H32.892C33.036 160.54 33.148 160.576 33.228 160.648C33.316 160.72 33.36 160.82 33.36 160.948C33.36 161.076 33.316 161.176 33.228 161.248C33.148 161.32 33.036 161.356 32.892 161.356H29.16V164.368C29.384 164.152 29.644 163.988 29.94 163.876C30.244 163.756 30.572 163.696 30.924 163.696ZM37.7953 169.096C36.8273 169.096 36.0913 168.728 35.5873 167.992C35.0833 167.256 34.8313 166.184 34.8313 164.776C34.8313 163.36 35.0833 162.284 35.5873 161.548C36.0913 160.812 36.8273 160.444 37.7953 160.444C38.7633 160.444 39.4993 160.812 40.0033 161.548C40.5073 162.276 40.7593 163.348 40.7593 164.764C40.7593 166.18 40.5073 167.256 40.0033 167.992C39.4993 168.728 38.7633 169.096 37.7953 169.096ZM37.7953 168.268C38.4673 168.268 38.9633 167.984 39.2833 167.416C39.6033 166.848 39.7633 165.964 39.7633 164.764C39.7633 163.556 39.6033 162.672 39.2833 162.112C38.9713 161.552 38.4753 161.272 37.7953 161.272C37.1233 161.272 36.6273 161.556 36.3073 162.124C35.9873 162.684 35.8273 163.564 35.8273 164.764C35.8273 165.964 35.9873 166.848 36.3073 167.416C36.6273 167.984 37.1233 168.268 37.7953 168.268ZM44.9906 169.096C44.0226 169.096 43.2866 168.728 42.7826 167.992C42.2786 167.256 42.0266 166.184 42.0266 164.776C42.0266 163.36 42.2786 162.284 42.7826 161.548C43.2866 160.812 44.0226 160.444 44.9906 160.444C45.9586 160.444 46.6946 160.812 47.1986 161.548C47.7026 162.276 47.9546 163.348 47.9546 164.764C47.9546 166.18 47.7026 167.256 47.1986 167.992C46.6946 168.728 45.9586 169.096 44.9906 169.096ZM44.9906 168.268C45.6626 168.268 46.1586 167.984 46.4786 167.416C46.7986 166.848 46.9586 165.964 46.9586 164.764C46.9586 163.556 46.7986 162.672 46.4786 162.112C46.1666 161.552 45.6706 161.272 44.9906 161.272C44.3186 161.272 43.8226 161.556 43.5026 162.124C43.1826 162.684 43.0226 163.564 43.0226 164.764C43.0226 165.964 43.1826 166.848 43.5026 167.416C43.8226 167.984 44.3186 168.268 44.9906 168.268ZM52.1859 169.096C51.2179 169.096 50.4819 168.728 49.9779 167.992C49.4739 167.256 49.2219 166.184 49.2219 164.776C49.2219 163.36 49.4739 162.284 49.9779 161.548C50.4819 160.812 51.2179 160.444 52.1859 160.444C53.1539 160.444 53.8899 160.812 54.3939 161.548C54.8979 162.276 55.1499 163.348 55.1499 164.764C55.1499 166.18 54.8979 167.256 54.3939 167.992C53.8899 168.728 53.1539 169.096 52.1859 169.096ZM52.1859 168.268C52.8579 168.268 53.3539 167.984 53.6739 167.416C53.9939 166.848 54.1539 165.964 54.1539 164.764C54.1539 163.556 53.9939 162.672 53.6739 162.112C53.3619 161.552 52.8659 161.272 52.1859 161.272C51.5139 161.272 51.0179 161.556 50.6979 162.124C50.3779 162.684 50.2179 163.564 50.2179 164.764C50.2179 165.964 50.3779 166.848 50.6979 167.416C51.0179 167.984 51.5139 168.268 52.1859 168.268Z" fill="#535261"/>
<path d="M33.396 215.348C33.54 215.348 33.652 215.388 33.732 215.468C33.812 215.54 33.852 215.636 33.852 215.756C33.852 216.028 33.7 216.164 33.396 216.164H32.496V217.556C32.496 217.716 32.448 217.84 32.352 217.928C32.264 218.016 32.148 218.06 32.004 218.06C31.86 218.06 31.744 218.016 31.656 217.928C31.568 217.84 31.524 217.716 31.524 217.556V216.164H27.972C27.828 216.164 27.716 216.124 27.636 216.044C27.556 215.964 27.516 215.864 27.516 215.744C27.516 215.632 27.56 215.508 27.648 215.372L31.572 209.696C31.684 209.552 31.828 209.48 32.004 209.48C32.14 209.48 32.256 209.524 32.352 209.612C32.448 209.7 32.496 209.824 32.496 209.984V215.348H33.396ZM28.632 215.348H31.524V211.184L28.632 215.348ZM37.7953 218.096C36.8273 218.096 36.0913 217.728 35.5873 216.992C35.0833 216.256 34.8313 215.184 34.8313 213.776C34.8313 212.36 35.0833 211.284 35.5873 210.548C36.0913 209.812 36.8273 209.444 37.7953 209.444C38.7633 209.444 39.4993 209.812 40.0033 210.548C40.5073 211.276 40.7593 212.348 40.7593 213.764C40.7593 215.18 40.5073 216.256 40.0033 216.992C39.4993 217.728 38.7633 218.096 37.7953 218.096ZM37.7953 217.268C38.4673 217.268 38.9633 216.984 39.2833 216.416C39.6033 215.848 39.7633 214.964 39.7633 213.764C39.7633 212.556 39.6033 211.672 39.2833 211.112C38.9713 210.552 38.4753 210.272 37.7953 210.272C37.1233 210.272 36.6273 210.556 36.3073 211.124C35.9873 211.684 35.8273 212.564 35.8273 213.764C35.8273 214.964 35.9873 215.848 36.3073 216.416C36.6273 216.984 37.1233 217.268 37.7953 217.268ZM44.9906 218.096C44.0226 218.096 43.2866 217.728 42.7826 216.992C42.2786 216.256 42.0266 215.184 42.0266 213.776C42.0266 212.36 42.2786 211.284 42.7826 210.548C43.2866 209.812 44.0226 209.444 44.9906 209.444C45.9586 209.444 46.6946 209.812 47.1986 210.548C47.7026 211.276 47.9546 212.348 47.9546 213.764C47.9546 215.18 47.7026 216.256 47.1986 216.992C46.6946 217.728 45.9586 218.096 44.9906 218.096ZM44.9906 217.268C45.6626 217.268 46.1586 216.984 46.4786 216.416C46.7986 215.848 46.9586 214.964 46.9586 213.764C46.9586 212.556 46.7986 211.672 46.4786 211.112C46.1666 210.552 45.6706 210.272 44.9906 210.272C44.3186 210.272 43.8226 210.556 43.5026 211.124C43.1826 211.684 43.0226 212.564 43.0226 213.764C43.0226 214.964 43.1826 215.848 43.5026 216.416C43.8226 216.984 44.3186 217.268 44.9906 217.268ZM52.1859 218.096C51.2179 218.096 50.4819 217.728 49.9779 216.992C49.4739 216.256 49.2219 215.184 49.2219 213.776C49.2219 212.36 49.4739 211.284 49.9779 210.548C50.4819 209.812 51.2179 209.444 52.1859 209.444C53.1539 209.444 53.8899 209.812 54.3939 210.548C54.8979 211.276 55.1499 212.348 55.1499 213.764C55.1499 215.18 54.8979 216.256 54.3939 216.992C53.8899 217.728 53.1539 218.096 52.1859 218.096ZM52.1859 217.268C52.8579 217.268 53.3539 216.984 53.6739 216.416C53.9939 215.848 54.1539 214.964 54.1539 213.764C54.1539 212.556 53.9939 211.672 53.6739 211.112C53.3619 210.552 52.8659 210.272 52.1859 210.272C51.5139 210.272 51.0179 210.556 50.6979 211.124C50.3779 211.684 50.2179 212.564 50.2179 213.764C50.2179 214.964 50.3779 215.848 50.6979 216.416C51.0179 216.984 51.5139 217.268 52.1859 217.268Z" fill="#535261"/>
<path d="M31.728 262.656C32.24 262.8 32.628 263.048 32.892 263.4C33.164 263.752 33.3 264.188 33.3 264.708C33.3 265.444 33.052 266.024 32.556 266.448C32.06 266.872 31.384 267.084 30.528 267.084C30.008 267.084 29.508 266.996 29.028 266.82C28.556 266.644 28.156 266.404 27.828 266.1C27.7 265.98 27.636 265.844 27.636 265.692C27.636 265.572 27.668 265.472 27.732 265.392C27.796 265.312 27.872 265.272 27.96 265.272C28.072 265.272 28.184 265.316 28.296 265.404C28.664 265.7 29.024 265.916 29.376 266.052C29.728 266.188 30.108 266.256 30.516 266.256C31.108 266.256 31.556 266.12 31.86 265.848C32.172 265.576 32.328 265.184 32.328 264.672C32.328 263.64 31.68 263.124 30.384 263.124H29.748C29.62 263.124 29.516 263.084 29.436 263.004C29.364 262.916 29.328 262.816 29.328 262.704C29.328 262.592 29.364 262.496 29.436 262.416C29.516 262.336 29.62 262.296 29.748 262.296H30.192C30.816 262.296 31.296 262.16 31.632 261.888C31.968 261.608 32.136 261.208 32.136 260.688C32.136 260.232 32 259.884 31.728 259.644C31.456 259.396 31.072 259.272 30.576 259.272C30.2 259.272 29.836 259.344 29.484 259.488C29.132 259.624 28.78 259.836 28.428 260.124C28.316 260.212 28.204 260.256 28.092 260.256C28.004 260.256 27.928 260.216 27.864 260.136C27.8 260.056 27.768 259.956 27.768 259.836C27.768 259.684 27.832 259.548 27.96 259.428C28.288 259.124 28.684 258.884 29.148 258.708C29.62 258.532 30.104 258.444 30.6 258.444C31.368 258.444 31.98 258.64 32.436 259.032C32.892 259.424 33.116 259.952 33.108 260.616C33.1 261.096 32.972 261.516 32.724 261.876C32.484 262.236 32.152 262.496 31.728 262.656ZM37.7953 267.096C36.8273 267.096 36.0913 266.728 35.5873 265.992C35.0833 265.256 34.8313 264.184 34.8313 262.776C34.8313 261.36 35.0833 260.284 35.5873 259.548C36.0913 258.812 36.8273 258.444 37.7953 258.444C38.7633 258.444 39.4993 258.812 40.0033 259.548C40.5073 260.276 40.7593 261.348 40.7593 262.764C40.7593 264.18 40.5073 265.256 40.0033 265.992C39.4993 266.728 38.7633 267.096 37.7953 267.096ZM37.7953 266.268C38.4673 266.268 38.9633 265.984 39.2833 265.416C39.6033 264.848 39.7633 263.964 39.7633 262.764C39.7633 261.556 39.6033 260.672 39.2833 260.112C38.9713 259.552 38.4753 259.272 37.7953 259.272C37.1233 259.272 36.6273 259.556 36.3073 260.124C35.9873 260.684 35.8273 261.564 35.8273 262.764C35.8273 263.964 35.9873 264.848 36.3073 265.416C36.6273 265.984 37.1233 266.268 37.7953 266.268ZM44.9906 267.096C44.0226 267.096 43.2866 266.728 42.7826 265.992C42.2786 265.256 42.0266 264.184 42.0266 262.776C42.0266 261.36 42.2786 260.284 42.7826 259.548C43.2866 258.812 44.0226 258.444 44.9906 258.444C45.9586 258.444 46.6946 258.812 47.1986 259.548C47.7026 260.276 47.9546 261.348 47.9546 262.764C47.9546 264.18 47.7026 265.256 47.1986 265.992C46.6946 266.728 45.9586 267.096 44.9906 267.096ZM44.9906 266.268C45.6626 266.268 46.1586 265.984 46.4786 265.416C46.7986 264.848 46.9586 263.964 46.9586 262.764C46.9586 261.556 46.7986 260.672 46.4786 260.112C46.1666 259.552 45.6706 259.272 44.9906 259.272C44.3186 259.272 43.8226 259.556 43.5026 260.124C43.1826 260.684 43.0226 261.564 43.0226 262.764C43.0226 263.964 43.1826 264.848 43.5026 265.416C43.8226 265.984 44.3186 266.268 44.9906 266.268ZM52.1859 267.096C51.2179 267.096 50.4819 266.728 49.9779 265.992C49.4739 265.256 49.2219 264.184 49.2219 262.776C49.2219 261.36 49.4739 260.284 49.9779 259.548C50.4819 258.812 51.2179 258.444 52.1859 258.444C53.1539 258.444 53.8899 258.812 54.3939 259.548C54.8979 260.276 55.1499 261.348 55.1499 262.764C55.1499 264.18 54.8979 265.256 54.3939 265.992C53.8899 266.728 53.1539 267.096 52.1859 267.096ZM52.1859 266.268C52.8579 266.268 53.3539 265.984 53.6739 265.416C53.9939 264.848 54.1539 263.964 54.1539 262.764C54.1539 261.556 53.9939 260.672 53.6739 260.112C53.3619 259.552 52.8659 259.272 52.1859 259.272C51.5139 259.272 51.0179 259.556 50.6979 260.124C50.3779 260.684 50.2179 261.564 50.2179 262.764C50.2179 263.964 50.3779 264.848 50.6979 265.416C51.0179 265.984 51.5139 266.268 52.1859 266.268Z" fill="#535261"/>
<path d="M33.096 315.172C33.24 315.172 33.352 315.208 33.432 315.28C33.512 315.352 33.552 315.452 33.552 315.58C33.552 315.86 33.4 316 33.096 316H28.392C28.256 316 28.144 315.96 28.056 315.88C27.968 315.792 27.924 315.688 27.924 315.568C27.924 315.416 27.98 315.284 28.092 315.172L30.984 311.992C31.384 311.544 31.672 311.144 31.848 310.792C32.032 310.432 32.124 310.072 32.124 309.712C32.124 309.248 31.988 308.892 31.716 308.644C31.452 308.396 31.076 308.272 30.588 308.272C30.204 308.272 29.836 308.344 29.484 308.488C29.132 308.624 28.78 308.836 28.428 309.124C28.308 309.22 28.196 309.268 28.092 309.268C28.004 309.268 27.928 309.228 27.864 309.148C27.8 309.06 27.768 308.956 27.768 308.836C27.768 308.668 27.832 308.532 27.96 308.428C28.288 308.124 28.688 307.884 29.16 307.708C29.632 307.532 30.116 307.444 30.612 307.444C31.372 307.444 31.976 307.644 32.424 308.044C32.88 308.444 33.108 308.984 33.108 309.664C33.108 310.152 32.996 310.62 32.772 311.068C32.556 311.516 32.196 312.016 31.692 312.568L29.292 315.172H33.096ZM37.7953 316.096C36.8273 316.096 36.0913 315.728 35.5873 314.992C35.0833 314.256 34.8313 313.184 34.8313 311.776C34.8313 310.36 35.0833 309.284 35.5873 308.548C36.0913 307.812 36.8273 307.444 37.7953 307.444C38.7633 307.444 39.4993 307.812 40.0033 308.548C40.5073 309.276 40.7593 310.348 40.7593 311.764C40.7593 313.18 40.5073 314.256 40.0033 314.992C39.4993 315.728 38.7633 316.096 37.7953 316.096ZM37.7953 315.268C38.4673 315.268 38.9633 314.984 39.2833 314.416C39.6033 313.848 39.7633 312.964 39.7633 311.764C39.7633 310.556 39.6033 309.672 39.2833 309.112C38.9713 308.552 38.4753 308.272 37.7953 308.272C37.1233 308.272 36.6273 308.556 36.3073 309.124C35.9873 309.684 35.8273 310.564 35.8273 311.764C35.8273 312.964 35.9873 313.848 36.3073 314.416C36.6273 314.984 37.1233 315.268 37.7953 315.268ZM44.9906 316.096C44.0226 316.096 43.2866 315.728 42.7826 314.992C42.2786 314.256 42.0266 313.184 42.0266 311.776C42.0266 310.36 42.2786 309.284 42.7826 308.548C43.2866 307.812 44.0226 307.444 44.9906 307.444C45.9586 307.444 46.6946 307.812 47.1986 308.548C47.7026 309.276 47.9546 310.348 47.9546 311.764C47.9546 313.18 47.7026 314.256 47.1986 314.992C46.6946 315.728 45.9586 316.096 44.9906 316.096ZM44.9906 315.268C45.6626 315.268 46.1586 314.984 46.4786 314.416C46.7986 313.848 46.9586 312.964 46.9586 311.764C46.9586 310.556 46.7986 309.672 46.4786 309.112C46.1666 308.552 45.6706 308.272 44.9906 308.272C44.3186 308.272 43.8226 308.556 43.5026 309.124C43.1826 309.684 43.0226 310.564 43.0226 311.764C43.0226 312.964 43.1826 313.848 43.5026 314.416C43.8226 314.984 44.3186 315.268 44.9906 315.268ZM52.1859 316.096C51.2179 316.096 50.4819 315.728 49.9779 314.992C49.4739 314.256 49.2219 313.184 49.2219 311.776C49.2219 310.36 49.4739 309.284 49.9779 308.548C50.4819 307.812 51.2179 307.444 52.1859 307.444C53.1539 307.444 53.8899 307.812 54.3939 308.548C54.8979 309.276 55.1499 310.348 55.1499 311.764C55.1499 313.18 54.8979 314.256 54.3939 314.992C53.8899 315.728 53.1539 316.096 52.1859 316.096ZM52.1859 315.268C52.8579 315.268 53.3539 314.984 53.6739 314.416C53.9939 313.848 54.1539 312.964 54.1539 311.764C54.1539 310.556 53.9939 309.672 53.6739 309.112C53.3619 308.552 52.8659 308.272 52.1859 308.272C51.5139 308.272 51.0179 308.556 50.6979 309.124C50.3779 309.684 50.2179 310.564 50.2179 311.764C50.2179 312.964 50.3779 313.848 50.6979 314.416C51.0179 314.984 51.5139 315.268 52.1859 315.268Z" fill="#535261"/>
<path d="M32.904 364.172C33.048 364.172 33.16 364.208 33.24 364.28C33.32 364.352 33.36 364.452 33.36 364.58C33.36 364.716 33.32 364.82 33.24 364.892C33.168 364.964 33.056 365 32.904 365H28.932C28.78 365 28.664 364.964 28.584 364.892C28.512 364.82 28.476 364.716 28.476 364.58C28.476 364.452 28.516 364.352 28.596 364.28C28.676 364.208 28.788 364.172 28.932 364.172H30.42V357.74L29.112 358.592C29.048 358.632 28.984 358.652 28.92 358.652C28.808 358.652 28.708 358.6 28.62 358.496C28.54 358.392 28.5 358.28 28.5 358.16C28.5 357.992 28.564 357.872 28.692 357.8L30.516 356.612C30.652 356.524 30.792 356.48 30.936 356.48C31.072 356.48 31.184 356.524 31.272 356.612C31.36 356.7 31.404 356.824 31.404 356.984V364.172H32.904ZM37.7953 365.096C36.8273 365.096 36.0913 364.728 35.5873 363.992C35.0833 363.256 34.8313 362.184 34.8313 360.776C34.8313 359.36 35.0833 358.284 35.5873 357.548C36.0913 356.812 36.8273 356.444 37.7953 356.444C38.7633 356.444 39.4993 356.812 40.0033 357.548C40.5073 358.276 40.7593 359.348 40.7593 360.764C40.7593 362.18 40.5073 363.256 40.0033 363.992C39.4993 364.728 38.7633 365.096 37.7953 365.096ZM37.7953 364.268C38.4673 364.268 38.9633 363.984 39.2833 363.416C39.6033 362.848 39.7633 361.964 39.7633 360.764C39.7633 359.556 39.6033 358.672 39.2833 358.112C38.9713 357.552 38.4753 357.272 37.7953 357.272C37.1233 357.272 36.6273 357.556 36.3073 358.124C35.9873 358.684 35.8273 359.564 35.8273 360.764C35.8273 361.964 35.9873 362.848 36.3073 363.416C36.6273 363.984 37.1233 364.268 37.7953 364.268ZM44.9906 365.096C44.0226 365.096 43.2866 364.728 42.7826 363.992C42.2786 363.256 42.0266 362.184 42.0266 360.776C42.0266 359.36 42.2786 358.284 42.7826 357.548C43.2866 356.812 44.0226 356.444 44.9906 356.444C45.9586 356.444 46.6946 356.812 47.1986 357.548C47.7026 358.276 47.9546 359.348 47.9546 360.764C47.9546 362.18 47.7026 363.256 47.1986 363.992C46.6946 364.728 45.9586 365.096 44.9906 365.096ZM44.9906 364.268C45.6626 364.268 46.1586 363.984 46.4786 363.416C46.7986 362.848 46.9586 361.964 46.9586 360.764C46.9586 359.556 46.7986 358.672 46.4786 358.112C46.1666 357.552 45.6706 357.272 44.9906 357.272C44.3186 357.272 43.8226 357.556 43.5026 358.124C43.1826 358.684 43.0226 359.564 43.0226 360.764C43.0226 361.964 43.1826 362.848 43.5026 363.416C43.8226 363.984 44.3186 364.268 44.9906 364.268ZM52.1859 365.096C51.2179 365.096 50.4819 364.728 49.9779 363.992C49.4739 363.256 49.2219 362.184 49.2219 360.776C49.2219 359.36 49.4739 358.284 49.9779 357.548C50.4819 356.812 51.2179 356.444 52.1859 356.444C53.1539 356.444 53.8899 356.812 54.3939 357.548C54.8979 358.276 55.1499 359.348 55.1499 360.764C55.1499 362.18 54.8979 363.256 54.3939 363.992C53.8899 364.728 53.1539 365.096 52.1859 365.096ZM52.1859 364.268C52.8579 364.268 53.3539 363.984 53.6739 363.416C53.9939 362.848 54.1539 361.964 54.1539 360.764C54.1539 359.556 53.9939 358.672 53.6739 358.112C53.3619 357.552 52.8659 357.272 52.1859 357.272C51.5139 357.272 51.0179 357.556 50.6979 358.124C50.3779 358.684 50.2179 359.564 50.2179 360.764C50.2179 361.964 50.3779 362.848 50.6979 363.416C51.0179 363.984 51.5139 364.268 52.1859 364.268Z" fill="#535261"/>
<path d="M30.6 414.096C29.632 414.096 28.896 413.728 28.392 412.992C27.888 412.256 27.636 411.184 27.636 409.776C27.636 408.36 27.888 407.284 28.392 406.548C28.896 405.812 29.632 405.444 30.6 405.444C31.568 405.444 32.304 405.812 32.808 406.548C33.312 407.276 33.564 408.348 33.564 409.764C33.564 411.18 33.312 412.256 32.808 412.992C32.304 413.728 31.568 414.096 30.6 414.096ZM30.6 413.268C31.272 413.268 31.768 412.984 32.088 412.416C32.408 411.848 32.568 410.964 32.568 409.764C32.568 408.556 32.408 407.672 32.088 407.112C31.776 406.552 31.28 406.272 30.6 406.272C29.928 406.272 29.432 406.556 29.112 407.124C28.792 407.684 28.632 408.564 28.632 409.764C28.632 410.964 28.792 411.848 29.112 412.416C29.432 412.984 29.928 413.268 30.6 413.268Z" fill="#535261"/>
<path d="M23.868 439.657C23.5 439.657 23.148 439.613 22.812 439.525C22.484 439.437 22.192 439.313 21.936 439.153C21.792 439.057 21.688 438.969 21.624 438.889C21.568 438.801 21.54 438.697 21.54 438.577C21.54 438.473 21.568 438.389 21.624 438.325C21.688 438.253 21.768 438.217 21.864 438.217C21.96 438.217 22.1 438.277 22.284 438.397C22.524 438.541 22.76 438.657 22.992 438.745C23.232 438.825 23.528 438.865 23.88 438.865C24.312 438.865 24.648 438.789 24.888 438.637C25.128 438.485 25.248 438.265 25.248 437.977C25.248 437.801 25.204 437.661 25.116 437.557C25.028 437.445 24.876 437.349 24.66 437.269C24.444 437.181 24.128 437.093 23.712 437.005C23.008 436.853 22.504 436.649 22.2 436.393C21.896 436.137 21.744 435.789 21.744 435.349C21.744 435.005 21.84 434.701 22.032 434.437C22.224 434.173 22.488 433.965 22.824 433.813C23.168 433.661 23.556 433.585 23.988 433.585C24.3 433.585 24.6 433.629 24.888 433.717C25.184 433.797 25.444 433.913 25.668 434.065C25.94 434.257 26.076 434.457 26.076 434.665C26.076 434.769 26.044 434.857 25.98 434.929C25.916 435.001 25.84 435.037 25.752 435.037C25.656 435.037 25.512 434.969 25.32 434.833C25.096 434.689 24.884 434.577 24.684 434.497C24.484 434.417 24.236 434.377 23.94 434.377C23.564 434.377 23.26 434.461 23.028 434.629C22.804 434.797 22.692 435.021 22.692 435.301C22.692 435.477 22.732 435.621 22.812 435.733C22.9 435.837 23.04 435.933 23.232 436.021C23.432 436.101 23.716 436.181 24.084 436.261C24.628 436.381 25.048 436.513 25.344 436.657C25.648 436.801 25.864 436.977 25.992 437.185C26.12 437.393 26.184 437.657 26.184 437.977C26.184 438.481 25.972 438.889 25.548 439.201C25.124 439.505 24.564 439.657 23.868 439.657ZM28.1576 439.633C28.0136 439.633 27.8936 439.593 27.7976 439.513C27.7096 439.425 27.6656 439.305 27.6656 439.153V431.533C27.6656 431.381 27.7096 431.265 27.7976 431.185C27.8936 431.097 28.0136 431.053 28.1576 431.053C28.2936 431.053 28.4056 431.097 28.4936 431.185C28.5896 431.265 28.6376 431.381 28.6376 431.533V439.153C28.6376 439.305 28.5896 439.425 28.4936 439.513C28.4056 439.593 28.2936 439.633 28.1576 439.633Z" fill="#535261"/>
<path d="M41.84 445.585C43.24 445.585 43.94 446.357 43.94 447.901V451.153C43.94 451.305 43.896 451.425 43.808 451.513C43.728 451.593 43.612 451.633 43.46 451.633C43.308 451.633 43.188 451.593 43.1 451.513C43.012 451.425 42.968 451.305 42.968 451.153V447.961C42.968 447.417 42.86 447.021 42.644 446.773C42.436 446.525 42.1 446.401 41.636 446.401C41.1 446.401 40.672 446.565 40.352 446.893C40.032 447.221 39.872 447.665 39.872 448.225V451.153C39.872 451.305 39.828 451.425 39.74 451.513C39.66 451.593 39.544 451.633 39.392 451.633C39.24 451.633 39.12 451.593 39.032 451.513C38.944 451.425 38.9 451.305 38.9 451.153V446.089C38.9 445.945 38.944 445.829 39.032 445.741C39.12 445.653 39.24 445.609 39.392 445.609C39.536 445.609 39.648 445.653 39.728 445.741C39.816 445.829 39.86 445.941 39.86 446.077V446.689C40.052 446.329 40.32 446.057 40.664 445.873C41.008 445.681 41.4 445.585 41.84 445.585ZM50.4603 445.609C50.6123 445.609 50.7323 445.653 50.8203 445.741C50.9083 445.829 50.9523 445.945 50.9523 446.089V451.177C50.9523 452.049 50.7283 452.705 50.2803 453.145C49.8323 453.593 49.1683 453.817 48.2883 453.817C47.4323 453.817 46.7203 453.649 46.1523 453.313C45.8643 453.153 45.7203 452.969 45.7203 452.761C45.7203 452.649 45.7483 452.557 45.8043 452.485C45.8683 452.413 45.9483 452.377 46.0443 452.377C46.1243 452.377 46.2683 452.433 46.4763 452.545C46.7563 452.689 47.0323 452.805 47.3043 452.893C47.5763 452.981 47.9003 453.025 48.2763 453.025C48.8443 453.025 49.2723 452.873 49.5603 452.569C49.8483 452.273 49.9923 451.837 49.9923 451.261V450.229C49.8243 450.605 49.5643 450.893 49.2123 451.093C48.8683 451.293 48.4603 451.393 47.9883 451.393C47.4763 451.393 47.0203 451.273 46.6203 451.033C46.2283 450.793 45.9203 450.453 45.6963 450.013C45.4803 449.573 45.3723 449.065 45.3723 448.489C45.3723 447.913 45.4803 447.405 45.6963 446.965C45.9203 446.525 46.2283 446.185 46.6203 445.945C47.0203 445.705 47.4763 445.585 47.9883 445.585C48.4523 445.585 48.8563 445.685 49.2003 445.885C49.5443 446.085 49.8043 446.369 49.9803 446.737V446.089C49.9803 445.945 50.0203 445.829 50.1003 445.741C50.1883 445.653 50.3083 445.609 50.4603 445.609ZM48.1803 450.589C48.7403 450.589 49.1803 450.405 49.5003 450.037C49.8203 449.661 49.9803 449.145 49.9803 448.489C49.9803 447.841 49.8203 447.333 49.5003 446.965C49.1883 446.589 48.7483 446.401 48.1803 446.401C47.6123 446.401 47.1643 446.589 46.8363 446.965C46.5163 447.333 46.3563 447.841 46.3563 448.489C46.3563 449.145 46.5163 449.661 46.8363 450.037C47.1643 450.405 47.6123 450.589 48.1803 450.589ZM55.1396 445.585C56.6036 445.585 57.3356 446.353 57.3356 447.889V451.153C57.3356 451.297 57.2916 451.413 57.2036 451.501C57.1236 451.589 57.0116 451.633 56.8676 451.633C56.7236 451.633 56.6076 451.589 56.5196 451.501C56.4316 451.413 56.3876 451.297 56.3876 451.153V450.577C56.2356 450.921 56.0036 451.189 55.6916 451.381C55.3796 451.565 55.0196 451.657 54.6116 451.657C54.2356 451.657 53.8876 451.581 53.5676 451.429C53.2556 451.277 53.0076 451.065 52.8236 450.793C52.6396 450.521 52.5476 450.221 52.5476 449.893C52.5476 449.453 52.6596 449.113 52.8836 448.873C53.1076 448.625 53.4756 448.449 53.9876 448.345C54.4996 448.233 55.2116 448.177 56.1236 448.177H56.3876V447.781C56.3876 447.301 56.2876 446.949 56.0876 446.725C55.8956 446.501 55.5796 446.389 55.1396 446.389C54.5956 446.389 54.0436 446.537 53.4836 446.833C53.2676 446.969 53.1156 447.037 53.0276 447.037C52.9316 447.037 52.8516 447.001 52.7876 446.929C52.7236 446.857 52.6916 446.765 52.6916 446.653C52.6916 446.541 52.7236 446.445 52.7876 446.365C52.8596 446.277 52.9716 446.189 53.1236 446.101C53.4036 445.941 53.7196 445.817 54.0716 445.729C54.4316 445.633 54.7876 445.585 55.1396 445.585ZM54.7436 450.889C55.2236 450.889 55.6156 450.729 55.9196 450.409C56.2316 450.081 56.3876 449.661 56.3876 449.149V448.801H56.1716C55.4676 448.801 54.9316 448.833 54.5636 448.897C54.1956 448.953 53.9316 449.053 53.7716 449.197C53.6196 449.333 53.5436 449.537 53.5436 449.809C53.5436 450.121 53.6556 450.381 53.8796 450.589C54.1116 450.789 54.3996 450.889 54.7436 450.889ZM53.2316 443.377C53.0716 443.225 52.9916 443.073 52.9916 442.921C52.9916 442.793 53.0356 442.689 53.1236 442.609C53.2116 442.521 53.3196 442.477 53.4476 442.477C53.6316 442.477 53.7956 442.569 53.9396 442.753L55.3316 444.577C55.3796 444.633 55.4036 444.693 55.4036 444.757C55.4036 444.829 55.3756 444.893 55.3196 444.949C55.2636 444.997 55.1996 445.021 55.1276 445.021C55.0556 445.021 54.9916 444.997 54.9356 444.949L53.2316 443.377ZM63.3268 445.909C63.4148 445.717 63.5548 445.621 63.7468 445.621C63.8668 445.621 63.9748 445.661 64.0708 445.741C64.1668 445.821 64.2148 445.921 64.2148 446.041C64.2148 446.113 64.1988 446.177 64.1668 446.233L60.7948 453.505C60.7548 453.593 60.6948 453.661 60.6148 453.709C60.5428 453.757 60.4668 453.781 60.3868 453.781C60.2668 453.781 60.1588 453.741 60.0628 453.661C59.9748 453.589 59.9308 453.493 59.9308 453.373C59.9308 453.309 59.9468 453.245 59.9788 453.181L60.8188 451.369L58.4428 446.233C58.4108 446.177 58.3948 446.117 58.3948 446.053C58.3948 445.933 58.4468 445.829 58.5508 445.741C58.6628 445.653 58.7828 445.609 58.9108 445.609C58.9908 445.609 59.0668 445.633 59.1388 445.681C59.2188 445.729 59.2788 445.797 59.3188 445.885L61.3228 450.385L63.3268 445.909Z" fill="#535261"/>
<path d="M32.392 448.091C32.364 448.175 32.322 448.241 32.266 448.287C32.21 448.334 32.154 448.357 32.098 448.357C32.014 448.357 31.944 448.325 31.888 448.259C31.8227 448.194 31.79 448.115 31.79 448.021C31.79 447.993 31.7993 447.951 31.818 447.895L35.178 437.423C35.234 437.246 35.3367 437.157 35.486 437.157C35.57 437.157 35.64 437.19 35.696 437.255C35.7613 437.321 35.794 437.4 35.794 437.493C35.794 437.521 35.7847 437.563 35.766 437.619L32.392 448.091Z" fill="#535261"/>
</svg>
