<svg width="757" height="375" viewBox="0 0 757 375" fill="none" xmlns="http://www.w3.org/2000/svg">
<g clip-path="url(#clip0_68087_318)">
<rect y="295" width="739" height="1" fill="#EAEAEC"/>
<rect y="246" width="739" height="1" fill="#EAEAEC"/>
<rect y="197" width="739" height="1" fill="#EAEAEC"/>
<rect y="148" width="739" height="1" fill="#EAEAEC"/>
<rect y="99" width="739" height="1" fill="#EAEAEC"/>
<rect y="50" width="739" height="1" fill="#EAEAEC"/>
<rect y="344" width="739" height="1" fill="#EAEAEC"/>
<path d="M52.4832 199.748L43.3834 211V344.559H740V157.477C721.8 165.903 716.77 167.388 698.571 160.977C680.371 154.565 662.171 136.615 643.972 128.347C625.772 120.078 607.572 121.49 589.373 131.959C571.173 142.427 552.974 161.953 534.774 163.487C516.574 165.022 498.375 148.566 480.175 142.185C461.975 135.803 443.776 139.496 425.576 150.249C407.376 161.002 389.177 178.815 370.977 179.505C352.777 180.196 334.578 163.762 316.378 164.333C298.178 164.904 279.979 182.479 261.779 180.843C243.58 179.206 225.38 158.359 207.18 145.706C188.981 133.052 170.781 128.594 152.581 129.59C134.382 130.587 116.182 137.039 97.9824 151.516C79.7827 165.994 61.5831 188.497 52.4832 199.748Z" fill="url(#paint0_linear_68087_318)"/>
<path d="M44.3667 211L53.4454 199.748C62.5241 188.497 80.6815 165.994 98.8389 151.516C116.996 137.039 135.154 130.587 153.311 129.59C171.469 128.594 189.626 133.052 207.783 145.706C225.941 158.359 244.098 179.206 262.256 180.843C280.413 182.479 298.57 164.904 316.728 164.333C334.885 163.762 353.043 180.196 371.2 179.505C389.357 178.815 407.515 161.002 425.672 150.249C443.83 139.496 461.987 135.803 480.145 142.185C498.302 148.566 516.459 165.022 534.617 163.487C552.774 161.953 570.932 142.427 589.089 131.959C607.246 121.49 625.404 120.078 643.561 128.347C661.719 136.615 679.876 154.565 698.033 160.977C716.191 167.388 721.209 165.903 739.367 157.477" stroke="#5185F7" stroke-width="2" stroke-linecap="round"/>
<path d="M45.588 358.546C45.436 358.546 45.312 358.502 45.216 358.414C45.128 358.318 45.084 358.194 45.084 358.042V350.866H42.504C42.36 350.866 42.248 350.83 42.168 350.758C42.088 350.686 42.048 350.582 42.048 350.446C42.048 350.31 42.088 350.206 42.168 350.134C42.248 350.062 42.36 350.026 42.504 350.026H48.66C48.804 350.026 48.916 350.062 48.996 350.134C49.076 350.206 49.116 350.31 49.116 350.446C49.116 350.582 49.076 350.686 48.996 350.758C48.916 350.83 48.804 350.866 48.66 350.866H46.08V358.042C46.08 358.194 46.036 358.318 45.948 358.414C45.86 358.502 45.74 358.546 45.588 358.546ZM53.633 352.522C53.785 352.522 53.901 352.566 53.981 352.654C54.069 352.742 54.113 352.858 54.113 353.002V358.078C54.113 358.214 54.069 358.326 53.981 358.414C53.901 358.502 53.785 358.546 53.633 358.546C53.489 358.546 53.373 358.506 53.285 358.426C53.205 358.338 53.165 358.226 53.165 358.09V357.49C52.981 357.842 52.721 358.11 52.385 358.294C52.057 358.478 51.685 358.57 51.269 358.57C50.573 358.57 50.049 358.378 49.697 357.994C49.345 357.602 49.169 357.026 49.169 356.266V353.002C49.169 352.858 49.213 352.742 49.301 352.654C49.389 352.566 49.509 352.522 49.661 352.522C49.813 352.522 49.929 352.566 50.009 352.654C50.097 352.742 50.141 352.858 50.141 353.002V356.242C50.141 356.762 50.245 357.146 50.453 357.394C50.661 357.634 50.989 357.754 51.437 357.754C51.949 357.754 52.361 357.59 52.673 357.262C52.985 356.926 53.141 356.486 53.141 355.942V353.002C53.141 352.858 53.185 352.742 53.273 352.654C53.361 352.566 53.481 352.522 53.633 352.522ZM58.3075 352.498C59.7715 352.498 60.5035 353.266 60.5035 354.802V358.066C60.5035 358.21 60.4595 358.326 60.3715 358.414C60.2915 358.502 60.1795 358.546 60.0355 358.546C59.8915 358.546 59.7755 358.502 59.6875 358.414C59.5995 358.326 59.5555 358.21 59.5555 358.066V357.49C59.4035 357.834 59.1715 358.102 58.8595 358.294C58.5475 358.478 58.1875 358.57 57.7795 358.57C57.4035 358.57 57.0555 358.494 56.7355 358.342C56.4235 358.19 56.1755 357.978 55.9915 357.706C55.8075 357.434 55.7155 357.134 55.7155 356.806C55.7155 356.366 55.8275 356.026 56.0515 355.786C56.2755 355.538 56.6435 355.362 57.1555 355.258C57.6675 355.146 58.3795 355.09 59.2915 355.09H59.5555V354.694C59.5555 354.214 59.4555 353.862 59.2555 353.638C59.0635 353.414 58.7475 353.302 58.3075 353.302C57.7635 353.302 57.2115 353.45 56.6515 353.746C56.4355 353.882 56.2835 353.95 56.1955 353.95C56.0995 353.95 56.0195 353.914 55.9555 353.842C55.8915 353.77 55.8595 353.678 55.8595 353.566C55.8595 353.454 55.8915 353.358 55.9555 353.278C56.0275 353.19 56.1395 353.102 56.2915 353.014C56.5715 352.854 56.8875 352.73 57.2395 352.642C57.5995 352.546 57.9555 352.498 58.3075 352.498ZM57.9115 357.802C58.3915 357.802 58.7835 357.642 59.0875 357.322C59.3995 356.994 59.5555 356.574 59.5555 356.062V355.714H59.3395C58.6355 355.714 58.0995 355.746 57.7315 355.81C57.3635 355.866 57.0995 355.966 56.9395 356.11C56.7875 356.246 56.7115 356.45 56.7115 356.722C56.7115 357.034 56.8235 357.294 57.0475 357.502C57.2795 357.702 57.5675 357.802 57.9115 357.802ZM59.0515 349.594C58.9555 349.474 58.9075 349.358 58.9075 349.246C58.9075 349.126 58.9515 349.026 59.0395 348.946C59.1355 348.866 59.2435 348.826 59.3635 348.826C59.5635 348.826 59.7035 348.93 59.7835 349.138L60.2875 350.314C60.3035 350.346 60.3115 350.386 60.3115 350.434C60.3115 350.506 60.2835 350.566 60.2275 350.614C60.1795 350.662 60.1195 350.686 60.0475 350.686C59.9595 350.686 59.8875 350.65 59.8315 350.578L59.0515 349.594ZM57.2755 351.814C57.1955 351.886 57.1115 351.922 57.0235 351.922C56.9275 351.922 56.8435 351.89 56.7715 351.826C56.6995 351.754 56.6635 351.67 56.6635 351.574C56.6635 351.47 56.7155 351.37 56.8195 351.274L57.8635 350.23C57.9995 350.102 58.1475 350.038 58.3075 350.038C58.4515 350.038 58.5995 350.102 58.7515 350.23L59.7955 351.274C59.8995 351.37 59.9515 351.47 59.9515 351.574C59.9515 351.67 59.9155 351.754 59.8435 351.826C59.7715 351.89 59.6915 351.922 59.6035 351.922C59.5075 351.922 59.4235 351.886 59.3515 351.814L58.3075 350.71L57.2755 351.814ZM65.2228 352.498C66.6228 352.498 67.3228 353.27 67.3228 354.814V358.066C67.3228 358.218 67.2788 358.338 67.1908 358.426C67.1108 358.506 66.9948 358.546 66.8428 358.546C66.6908 358.546 66.5708 358.506 66.4828 358.426C66.3948 358.338 66.3508 358.218 66.3508 358.066V354.874C66.3508 354.33 66.2428 353.934 66.0268 353.686C65.8188 353.438 65.4828 353.314 65.0188 353.314C64.4828 353.314 64.0548 353.478 63.7348 353.806C63.4148 354.134 63.2548 354.578 63.2548 355.138V358.066C63.2548 358.218 63.2108 358.338 63.1228 358.426C63.0428 358.506 62.9268 358.546 62.7748 358.546C62.6228 358.546 62.5028 358.506 62.4148 358.426C62.3268 358.338 62.2828 358.218 62.2828 358.066V353.002C62.2828 352.858 62.3268 352.742 62.4148 352.654C62.5028 352.566 62.6228 352.522 62.7748 352.522C62.9188 352.522 63.0308 352.566 63.1108 352.654C63.1988 352.742 63.2428 352.854 63.2428 352.99V353.602C63.4348 353.242 63.7028 352.97 64.0468 352.786C64.3908 352.594 64.7828 352.498 65.2228 352.498ZM77.2009 357.658C77.3449 357.658 77.4569 357.694 77.5369 357.766C77.6169 357.838 77.6569 357.938 77.6569 358.066C77.6569 358.202 77.6169 358.306 77.5369 358.378C77.4649 358.45 77.3529 358.486 77.2009 358.486H73.2289C73.0769 358.486 72.9609 358.45 72.8809 358.378C72.8089 358.306 72.7729 358.202 72.7729 358.066C72.7729 357.938 72.8129 357.838 72.8929 357.766C72.9729 357.694 73.0849 357.658 73.2289 357.658H74.7169V351.226L73.4089 352.078C73.3449 352.118 73.2809 352.138 73.2169 352.138C73.1049 352.138 73.0049 352.086 72.9169 351.982C72.8369 351.878 72.7969 351.766 72.7969 351.646C72.7969 351.478 72.8609 351.358 72.9889 351.286L74.8129 350.098C74.9489 350.01 75.0889 349.966 75.2329 349.966C75.3689 349.966 75.4809 350.01 75.5689 350.098C75.6569 350.186 75.7009 350.31 75.7009 350.47V357.658H77.2009Z" fill="#535261"/>
<path d="M261.255 358.546C261.103 358.546 260.979 358.502 260.883 358.414C260.795 358.318 260.751 358.194 260.751 358.042V350.866H258.171C258.027 350.866 257.915 350.83 257.835 350.758C257.755 350.686 257.715 350.582 257.715 350.446C257.715 350.31 257.755 350.206 257.835 350.134C257.915 350.062 258.027 350.026 258.171 350.026H264.327C264.471 350.026 264.583 350.062 264.663 350.134C264.743 350.206 264.783 350.31 264.783 350.446C264.783 350.582 264.743 350.686 264.663 350.758C264.583 350.83 264.471 350.866 264.327 350.866H261.747V358.042C261.747 358.194 261.703 358.318 261.615 358.414C261.527 358.502 261.407 358.546 261.255 358.546ZM269.3 352.522C269.452 352.522 269.568 352.566 269.648 352.654C269.736 352.742 269.78 352.858 269.78 353.002V358.078C269.78 358.214 269.736 358.326 269.648 358.414C269.568 358.502 269.452 358.546 269.3 358.546C269.156 358.546 269.04 358.506 268.952 358.426C268.872 358.338 268.832 358.226 268.832 358.09V357.49C268.648 357.842 268.388 358.11 268.052 358.294C267.724 358.478 267.352 358.57 266.936 358.57C266.24 358.57 265.716 358.378 265.364 357.994C265.012 357.602 264.836 357.026 264.836 356.266V353.002C264.836 352.858 264.88 352.742 264.968 352.654C265.056 352.566 265.176 352.522 265.328 352.522C265.48 352.522 265.596 352.566 265.676 352.654C265.764 352.742 265.808 352.858 265.808 353.002V356.242C265.808 356.762 265.912 357.146 266.12 357.394C266.328 357.634 266.656 357.754 267.104 357.754C267.616 357.754 268.028 357.59 268.34 357.262C268.652 356.926 268.808 356.486 268.808 355.942V353.002C268.808 352.858 268.852 352.742 268.94 352.654C269.028 352.566 269.148 352.522 269.3 352.522ZM273.974 352.498C275.438 352.498 276.17 353.266 276.17 354.802V358.066C276.17 358.21 276.126 358.326 276.038 358.414C275.958 358.502 275.846 358.546 275.702 358.546C275.558 358.546 275.442 358.502 275.354 358.414C275.266 358.326 275.222 358.21 275.222 358.066V357.49C275.07 357.834 274.838 358.102 274.526 358.294C274.214 358.478 273.854 358.57 273.446 358.57C273.07 358.57 272.722 358.494 272.402 358.342C272.09 358.19 271.842 357.978 271.658 357.706C271.474 357.434 271.382 357.134 271.382 356.806C271.382 356.366 271.494 356.026 271.718 355.786C271.942 355.538 272.31 355.362 272.822 355.258C273.334 355.146 274.046 355.09 274.958 355.09H275.222V354.694C275.222 354.214 275.122 353.862 274.922 353.638C274.73 353.414 274.414 353.302 273.974 353.302C273.43 353.302 272.878 353.45 272.318 353.746C272.102 353.882 271.95 353.95 271.862 353.95C271.766 353.95 271.686 353.914 271.622 353.842C271.558 353.77 271.526 353.678 271.526 353.566C271.526 353.454 271.558 353.358 271.622 353.278C271.694 353.19 271.806 353.102 271.958 353.014C272.238 352.854 272.554 352.73 272.906 352.642C273.266 352.546 273.622 352.498 273.974 352.498ZM273.578 357.802C274.058 357.802 274.45 357.642 274.754 357.322C275.066 356.994 275.222 356.574 275.222 356.062V355.714H275.006C274.302 355.714 273.766 355.746 273.398 355.81C273.03 355.866 272.766 355.966 272.606 356.11C272.454 356.246 272.378 356.45 272.378 356.722C272.378 357.034 272.49 357.294 272.714 357.502C272.946 357.702 273.234 357.802 273.578 357.802ZM274.718 349.594C274.622 349.474 274.574 349.358 274.574 349.246C274.574 349.126 274.618 349.026 274.706 348.946C274.802 348.866 274.91 348.826 275.03 348.826C275.23 348.826 275.37 348.93 275.45 349.138L275.954 350.314C275.97 350.346 275.978 350.386 275.978 350.434C275.978 350.506 275.95 350.566 275.894 350.614C275.846 350.662 275.786 350.686 275.714 350.686C275.626 350.686 275.554 350.65 275.498 350.578L274.718 349.594ZM272.942 351.814C272.862 351.886 272.778 351.922 272.69 351.922C272.594 351.922 272.51 351.89 272.438 351.826C272.366 351.754 272.33 351.67 272.33 351.574C272.33 351.47 272.382 351.37 272.486 351.274L273.53 350.23C273.666 350.102 273.814 350.038 273.974 350.038C274.118 350.038 274.266 350.102 274.418 350.23L275.462 351.274C275.566 351.37 275.618 351.47 275.618 351.574C275.618 351.67 275.582 351.754 275.51 351.826C275.438 351.89 275.358 351.922 275.27 351.922C275.174 351.922 275.09 351.886 275.018 351.814L273.974 350.71L272.942 351.814ZM280.889 352.498C282.289 352.498 282.989 353.27 282.989 354.814V358.066C282.989 358.218 282.945 358.338 282.857 358.426C282.777 358.506 282.661 358.546 282.509 358.546C282.357 358.546 282.237 358.506 282.149 358.426C282.061 358.338 282.017 358.218 282.017 358.066V354.874C282.017 354.33 281.909 353.934 281.693 353.686C281.485 353.438 281.149 353.314 280.685 353.314C280.149 353.314 279.721 353.478 279.401 353.806C279.081 354.134 278.921 354.578 278.921 355.138V358.066C278.921 358.218 278.877 358.338 278.789 358.426C278.709 358.506 278.593 358.546 278.441 358.546C278.289 358.546 278.169 358.506 278.081 358.426C277.993 358.338 277.949 358.218 277.949 358.066V353.002C277.949 352.858 277.993 352.742 278.081 352.654C278.169 352.566 278.289 352.522 278.441 352.522C278.585 352.522 278.697 352.566 278.777 352.654C278.865 352.742 278.909 352.854 278.909 352.99V353.602C279.101 353.242 279.369 352.97 279.713 352.786C280.057 352.594 280.449 352.498 280.889 352.498ZM293.06 357.658C293.204 357.658 293.316 357.694 293.396 357.766C293.476 357.838 293.516 357.938 293.516 358.066C293.516 358.346 293.364 358.486 293.06 358.486H288.356C288.22 358.486 288.108 358.446 288.02 358.366C287.932 358.278 287.888 358.174 287.888 358.054C287.888 357.902 287.944 357.77 288.056 357.658L290.948 354.478C291.348 354.03 291.636 353.63 291.812 353.278C291.996 352.918 292.088 352.558 292.088 352.198C292.088 351.734 291.952 351.378 291.68 351.13C291.416 350.882 291.04 350.758 290.552 350.758C290.168 350.758 289.8 350.83 289.448 350.974C289.096 351.11 288.744 351.322 288.392 351.61C288.272 351.706 288.16 351.754 288.056 351.754C287.968 351.754 287.892 351.714 287.828 351.634C287.764 351.546 287.732 351.442 287.732 351.322C287.732 351.154 287.796 351.018 287.924 350.914C288.252 350.61 288.652 350.37 289.124 350.194C289.596 350.018 290.08 349.93 290.576 349.93C291.336 349.93 291.94 350.13 292.388 350.53C292.844 350.93 293.072 351.47 293.072 352.15C293.072 352.638 292.96 353.106 292.736 353.554C292.52 354.002 292.16 354.502 291.656 355.054L289.256 357.658H293.06Z" fill="#535261"/>
<path d="M476.921 358.546C476.769 358.546 476.645 358.502 476.549 358.414C476.461 358.318 476.417 358.194 476.417 358.042V350.866H473.837C473.693 350.866 473.581 350.83 473.501 350.758C473.421 350.686 473.381 350.582 473.381 350.446C473.381 350.31 473.421 350.206 473.501 350.134C473.581 350.062 473.693 350.026 473.837 350.026H479.993C480.137 350.026 480.249 350.062 480.329 350.134C480.409 350.206 480.449 350.31 480.449 350.446C480.449 350.582 480.409 350.686 480.329 350.758C480.249 350.83 480.137 350.866 479.993 350.866H477.413V358.042C477.413 358.194 477.369 358.318 477.281 358.414C477.193 358.502 477.073 358.546 476.921 358.546ZM484.966 352.522C485.118 352.522 485.234 352.566 485.314 352.654C485.402 352.742 485.446 352.858 485.446 353.002V358.078C485.446 358.214 485.402 358.326 485.314 358.414C485.234 358.502 485.118 358.546 484.966 358.546C484.822 358.546 484.706 358.506 484.618 358.426C484.538 358.338 484.498 358.226 484.498 358.09V357.49C484.314 357.842 484.054 358.11 483.718 358.294C483.39 358.478 483.018 358.57 482.602 358.57C481.906 358.57 481.382 358.378 481.03 357.994C480.678 357.602 480.502 357.026 480.502 356.266V353.002C480.502 352.858 480.546 352.742 480.634 352.654C480.722 352.566 480.842 352.522 480.994 352.522C481.146 352.522 481.262 352.566 481.342 352.654C481.43 352.742 481.474 352.858 481.474 353.002V356.242C481.474 356.762 481.578 357.146 481.786 357.394C481.994 357.634 482.322 357.754 482.77 357.754C483.282 357.754 483.694 357.59 484.006 357.262C484.318 356.926 484.474 356.486 484.474 355.942V353.002C484.474 352.858 484.518 352.742 484.606 352.654C484.694 352.566 484.814 352.522 484.966 352.522ZM489.641 352.498C491.105 352.498 491.837 353.266 491.837 354.802V358.066C491.837 358.21 491.793 358.326 491.705 358.414C491.625 358.502 491.513 358.546 491.369 358.546C491.225 358.546 491.109 358.502 491.021 358.414C490.933 358.326 490.889 358.21 490.889 358.066V357.49C490.737 357.834 490.505 358.102 490.193 358.294C489.881 358.478 489.521 358.57 489.113 358.57C488.737 358.57 488.389 358.494 488.069 358.342C487.757 358.19 487.509 357.978 487.325 357.706C487.141 357.434 487.049 357.134 487.049 356.806C487.049 356.366 487.161 356.026 487.385 355.786C487.609 355.538 487.977 355.362 488.489 355.258C489.001 355.146 489.713 355.09 490.625 355.09H490.889V354.694C490.889 354.214 490.789 353.862 490.589 353.638C490.397 353.414 490.081 353.302 489.641 353.302C489.097 353.302 488.545 353.45 487.985 353.746C487.769 353.882 487.617 353.95 487.529 353.95C487.433 353.95 487.353 353.914 487.289 353.842C487.225 353.77 487.193 353.678 487.193 353.566C487.193 353.454 487.225 353.358 487.289 353.278C487.361 353.19 487.473 353.102 487.625 353.014C487.905 352.854 488.221 352.73 488.573 352.642C488.933 352.546 489.289 352.498 489.641 352.498ZM489.245 357.802C489.725 357.802 490.117 357.642 490.421 357.322C490.733 356.994 490.889 356.574 490.889 356.062V355.714H490.673C489.969 355.714 489.433 355.746 489.065 355.81C488.697 355.866 488.433 355.966 488.273 356.11C488.121 356.246 488.045 356.45 488.045 356.722C488.045 357.034 488.157 357.294 488.381 357.502C488.613 357.702 488.901 357.802 489.245 357.802ZM490.385 349.594C490.289 349.474 490.241 349.358 490.241 349.246C490.241 349.126 490.285 349.026 490.373 348.946C490.469 348.866 490.577 348.826 490.697 348.826C490.897 348.826 491.037 348.93 491.117 349.138L491.621 350.314C491.637 350.346 491.645 350.386 491.645 350.434C491.645 350.506 491.617 350.566 491.561 350.614C491.513 350.662 491.453 350.686 491.381 350.686C491.293 350.686 491.221 350.65 491.165 350.578L490.385 349.594ZM488.609 351.814C488.529 351.886 488.445 351.922 488.357 351.922C488.261 351.922 488.177 351.89 488.105 351.826C488.033 351.754 487.997 351.67 487.997 351.574C487.997 351.47 488.049 351.37 488.153 351.274L489.197 350.23C489.333 350.102 489.481 350.038 489.641 350.038C489.785 350.038 489.933 350.102 490.085 350.23L491.129 351.274C491.233 351.37 491.285 351.47 491.285 351.574C491.285 351.67 491.249 351.754 491.177 351.826C491.105 351.89 491.025 351.922 490.937 351.922C490.841 351.922 490.757 351.886 490.685 351.814L489.641 350.71L488.609 351.814ZM496.556 352.498C497.956 352.498 498.656 353.27 498.656 354.814V358.066C498.656 358.218 498.612 358.338 498.524 358.426C498.444 358.506 498.328 358.546 498.176 358.546C498.024 358.546 497.904 358.506 497.816 358.426C497.728 358.338 497.684 358.218 497.684 358.066V354.874C497.684 354.33 497.576 353.934 497.36 353.686C497.152 353.438 496.816 353.314 496.352 353.314C495.816 353.314 495.388 353.478 495.068 353.806C494.748 354.134 494.588 354.578 494.588 355.138V358.066C494.588 358.218 494.544 358.338 494.456 358.426C494.376 358.506 494.26 358.546 494.108 358.546C493.956 358.546 493.836 358.506 493.748 358.426C493.66 358.338 493.616 358.218 493.616 358.066V353.002C493.616 352.858 493.66 352.742 493.748 352.654C493.836 352.566 493.956 352.522 494.108 352.522C494.252 352.522 494.364 352.566 494.444 352.654C494.532 352.742 494.576 352.854 494.576 352.99V353.602C494.768 353.242 495.036 352.97 495.38 352.786C495.724 352.594 496.116 352.498 496.556 352.498ZM507.358 354.142C507.87 354.286 508.258 354.534 508.522 354.886C508.794 355.238 508.93 355.674 508.93 356.194C508.93 356.93 508.682 357.51 508.186 357.934C507.69 358.358 507.014 358.57 506.158 358.57C505.638 358.57 505.138 358.482 504.658 358.306C504.186 358.13 503.786 357.89 503.458 357.586C503.33 357.466 503.266 357.33 503.266 357.178C503.266 357.058 503.298 356.958 503.362 356.878C503.426 356.798 503.502 356.758 503.59 356.758C503.702 356.758 503.814 356.802 503.926 356.89C504.294 357.186 504.654 357.402 505.006 357.538C505.358 357.674 505.738 357.742 506.146 357.742C506.738 357.742 507.186 357.606 507.49 357.334C507.802 357.062 507.958 356.67 507.958 356.158C507.958 355.126 507.31 354.61 506.014 354.61H505.378C505.25 354.61 505.146 354.57 505.066 354.49C504.994 354.402 504.958 354.302 504.958 354.19C504.958 354.078 504.994 353.982 505.066 353.902C505.146 353.822 505.25 353.782 505.378 353.782H505.822C506.446 353.782 506.926 353.646 507.262 353.374C507.598 353.094 507.766 352.694 507.766 352.174C507.766 351.718 507.63 351.37 507.358 351.13C507.086 350.882 506.702 350.758 506.206 350.758C505.83 350.758 505.466 350.83 505.114 350.974C504.762 351.11 504.41 351.322 504.058 351.61C503.946 351.698 503.834 351.742 503.722 351.742C503.634 351.742 503.558 351.702 503.494 351.622C503.43 351.542 503.398 351.442 503.398 351.322C503.398 351.17 503.462 351.034 503.59 350.914C503.918 350.61 504.314 350.37 504.778 350.194C505.25 350.018 505.734 349.93 506.23 349.93C506.998 349.93 507.61 350.126 508.066 350.518C508.522 350.91 508.746 351.438 508.738 352.102C508.73 352.582 508.602 353.002 508.354 353.362C508.114 353.722 507.782 353.982 507.358 354.142Z" fill="#535261"/>
<path d="M692.588 358.546C692.436 358.546 692.312 358.502 692.216 358.414C692.128 358.318 692.084 358.194 692.084 358.042V350.866H689.504C689.36 350.866 689.248 350.83 689.168 350.758C689.088 350.686 689.048 350.582 689.048 350.446C689.048 350.31 689.088 350.206 689.168 350.134C689.248 350.062 689.36 350.026 689.504 350.026H695.66C695.804 350.026 695.916 350.062 695.996 350.134C696.076 350.206 696.116 350.31 696.116 350.446C696.116 350.582 696.076 350.686 695.996 350.758C695.916 350.83 695.804 350.866 695.66 350.866H693.08V358.042C693.08 358.194 693.036 358.318 692.948 358.414C692.86 358.502 692.74 358.546 692.588 358.546ZM700.633 352.522C700.785 352.522 700.901 352.566 700.981 352.654C701.069 352.742 701.113 352.858 701.113 353.002V358.078C701.113 358.214 701.069 358.326 700.981 358.414C700.901 358.502 700.785 358.546 700.633 358.546C700.489 358.546 700.373 358.506 700.285 358.426C700.205 358.338 700.165 358.226 700.165 358.09V357.49C699.981 357.842 699.721 358.11 699.385 358.294C699.057 358.478 698.685 358.57 698.269 358.57C697.573 358.57 697.049 358.378 696.697 357.994C696.345 357.602 696.169 357.026 696.169 356.266V353.002C696.169 352.858 696.213 352.742 696.301 352.654C696.389 352.566 696.509 352.522 696.661 352.522C696.813 352.522 696.929 352.566 697.009 352.654C697.097 352.742 697.141 352.858 697.141 353.002V356.242C697.141 356.762 697.245 357.146 697.453 357.394C697.661 357.634 697.989 357.754 698.437 357.754C698.949 357.754 699.361 357.59 699.673 357.262C699.985 356.926 700.141 356.486 700.141 355.942V353.002C700.141 352.858 700.185 352.742 700.273 352.654C700.361 352.566 700.481 352.522 700.633 352.522ZM705.308 352.498C706.772 352.498 707.504 353.266 707.504 354.802V358.066C707.504 358.21 707.46 358.326 707.372 358.414C707.292 358.502 707.18 358.546 707.036 358.546C706.892 358.546 706.776 358.502 706.688 358.414C706.6 358.326 706.556 358.21 706.556 358.066V357.49C706.404 357.834 706.172 358.102 705.86 358.294C705.548 358.478 705.188 358.57 704.78 358.57C704.404 358.57 704.056 358.494 703.736 358.342C703.424 358.19 703.176 357.978 702.992 357.706C702.808 357.434 702.716 357.134 702.716 356.806C702.716 356.366 702.828 356.026 703.052 355.786C703.276 355.538 703.644 355.362 704.156 355.258C704.668 355.146 705.38 355.09 706.292 355.09H706.556V354.694C706.556 354.214 706.456 353.862 706.256 353.638C706.064 353.414 705.748 353.302 705.308 353.302C704.764 353.302 704.212 353.45 703.652 353.746C703.436 353.882 703.284 353.95 703.196 353.95C703.1 353.95 703.02 353.914 702.956 353.842C702.892 353.77 702.86 353.678 702.86 353.566C702.86 353.454 702.892 353.358 702.956 353.278C703.028 353.19 703.14 353.102 703.292 353.014C703.572 352.854 703.888 352.73 704.24 352.642C704.6 352.546 704.956 352.498 705.308 352.498ZM704.912 357.802C705.392 357.802 705.784 357.642 706.088 357.322C706.4 356.994 706.556 356.574 706.556 356.062V355.714H706.34C705.636 355.714 705.1 355.746 704.732 355.81C704.364 355.866 704.1 355.966 703.94 356.11C703.788 356.246 703.712 356.45 703.712 356.722C703.712 357.034 703.824 357.294 704.048 357.502C704.28 357.702 704.568 357.802 704.912 357.802ZM706.052 349.594C705.956 349.474 705.908 349.358 705.908 349.246C705.908 349.126 705.952 349.026 706.04 348.946C706.136 348.866 706.244 348.826 706.364 348.826C706.564 348.826 706.704 348.93 706.784 349.138L707.288 350.314C707.304 350.346 707.312 350.386 707.312 350.434C707.312 350.506 707.284 350.566 707.228 350.614C707.18 350.662 707.12 350.686 707.048 350.686C706.96 350.686 706.888 350.65 706.832 350.578L706.052 349.594ZM704.276 351.814C704.196 351.886 704.112 351.922 704.024 351.922C703.928 351.922 703.844 351.89 703.772 351.826C703.7 351.754 703.664 351.67 703.664 351.574C703.664 351.47 703.716 351.37 703.82 351.274L704.864 350.23C705 350.102 705.148 350.038 705.308 350.038C705.452 350.038 705.6 350.102 705.752 350.23L706.796 351.274C706.9 351.37 706.952 351.47 706.952 351.574C706.952 351.67 706.916 351.754 706.844 351.826C706.772 351.89 706.692 351.922 706.604 351.922C706.508 351.922 706.424 351.886 706.352 351.814L705.308 350.71L704.276 351.814ZM712.223 352.498C713.623 352.498 714.323 353.27 714.323 354.814V358.066C714.323 358.218 714.279 358.338 714.191 358.426C714.111 358.506 713.995 358.546 713.843 358.546C713.691 358.546 713.571 358.506 713.483 358.426C713.395 358.338 713.351 358.218 713.351 358.066V354.874C713.351 354.33 713.243 353.934 713.027 353.686C712.819 353.438 712.483 353.314 712.019 353.314C711.483 353.314 711.055 353.478 710.735 353.806C710.415 354.134 710.255 354.578 710.255 355.138V358.066C710.255 358.218 710.211 358.338 710.123 358.426C710.043 358.506 709.927 358.546 709.775 358.546C709.623 358.546 709.503 358.506 709.415 358.426C709.327 358.338 709.283 358.218 709.283 358.066V353.002C709.283 352.858 709.327 352.742 709.415 352.654C709.503 352.566 709.623 352.522 709.775 352.522C709.919 352.522 710.031 352.566 710.111 352.654C710.199 352.742 710.243 352.854 710.243 352.99V353.602C710.435 353.242 710.703 352.97 711.047 352.786C711.391 352.594 711.783 352.498 712.223 352.498ZM724.693 355.834C724.837 355.834 724.949 355.874 725.029 355.954C725.109 356.026 725.149 356.122 725.149 356.242C725.149 356.514 724.997 356.65 724.693 356.65H723.793V358.042C723.793 358.202 723.745 358.326 723.649 358.414C723.561 358.502 723.445 358.546 723.301 358.546C723.157 358.546 723.041 358.502 722.953 358.414C722.865 358.326 722.821 358.202 722.821 358.042V356.65H719.269C719.125 356.65 719.013 356.61 718.933 356.53C718.853 356.45 718.813 356.35 718.813 356.23C718.813 356.118 718.857 355.994 718.945 355.858L722.869 350.182C722.981 350.038 723.125 349.966 723.301 349.966C723.437 349.966 723.553 350.01 723.649 350.098C723.745 350.186 723.793 350.31 723.793 350.47V355.834H724.693ZM719.929 355.834H722.821V351.67L719.929 355.834Z" fill="#535261"/>
</g>
<defs>
<linearGradient id="paint0_linear_68087_318" x1="391.692" y1="123" x2="391.692" y2="344.559" gradientUnits="userSpaceOnUse">
<stop stop-color="#CEDDFF"/>
<stop offset="1" stop-color="#CEDDFF" stop-opacity="0"/>
</linearGradient>
<clipPath id="clip0_68087_318">
<rect width="738.733" height="373" fill="white" transform="translate(0 2)"/>
</clipPath>
</defs>
</svg>
