<svg width="757" height="375" viewBox="0 0 757 375" fill="none" xmlns="http://www.w3.org/2000/svg">
<g clip-path="url(#clip0_68087_3863)">
<rect y="295" width="739" height="1" fill="#EAEAEC"/>
<rect y="246" width="739" height="1" fill="#EAEAEC"/>
<rect y="197" width="739" height="1" fill="#EAEAEC"/>
<rect y="148" width="739" height="1" fill="#EAEAEC"/>
<rect y="99" width="739" height="1" fill="#EAEAEC"/>
<rect y="50" width="739" height="1" fill="#EAEAEC"/>
<rect y="344" width="739" height="1" fill="#EAEAEC"/>
<path d="M52.4831 199.748L43.3833 211V344.559H740V157.477C721.8 165.903 716.77 167.388 698.571 160.977C680.371 154.565 662.171 136.615 643.972 128.347C625.772 120.078 607.572 121.49 589.373 131.959C571.173 142.427 552.973 161.953 534.774 163.487C516.574 165.022 498.374 148.566 480.175 142.185C461.975 135.803 443.776 139.496 425.576 150.249C407.376 161.002 389.177 178.815 370.977 179.505C352.777 180.196 334.578 163.762 316.378 164.333C298.178 164.904 279.979 182.479 261.779 180.843C243.579 179.206 225.38 158.359 207.18 145.706C188.98 133.052 170.781 128.594 152.581 129.59C134.382 130.587 116.182 137.039 97.9822 151.516C79.7826 165.994 61.5829 188.497 52.4831 199.748Z" fill="url(#paint0_linear_68087_3863)"/>
<path d="M44.3665 211L53.4452 199.748C62.5239 188.497 80.6813 165.994 98.8387 151.516C116.996 137.039 135.154 130.587 153.311 129.59C171.468 128.594 189.626 133.052 207.783 145.706C225.941 158.359 244.098 179.206 262.255 180.843C280.413 182.479 298.57 164.904 316.728 164.333C334.885 163.762 353.042 180.196 371.2 179.505C389.357 178.815 407.515 161.002 425.672 150.249C443.829 139.496 461.987 135.803 480.144 142.185C498.302 148.566 516.459 165.022 534.617 163.487C552.774 161.953 570.931 142.427 589.089 131.959C607.246 121.49 625.404 120.078 643.561 128.347C661.718 136.615 679.876 154.565 698.033 160.977C716.191 167.388 721.209 165.903 739.366 157.477" stroke="#5185F7" stroke-width="2" stroke-linecap="round"/>
<path d="M44.904 357.628C45.048 357.628 45.16 357.664 45.24 357.736C45.32 357.808 45.36 357.908 45.36 358.036C45.36 358.172 45.32 358.276 45.24 358.348C45.168 358.42 45.056 358.456 44.904 358.456H40.932C40.78 358.456 40.664 358.42 40.584 358.348C40.512 358.276 40.476 358.172 40.476 358.036C40.476 357.908 40.516 357.808 40.596 357.736C40.676 357.664 40.788 357.628 40.932 357.628H42.42V351.196L41.112 352.048C41.048 352.088 40.984 352.108 40.92 352.108C40.808 352.108 40.708 352.056 40.62 351.952C40.54 351.848 40.5 351.736 40.5 351.616C40.5 351.448 40.564 351.328 40.692 351.256L42.516 350.068C42.652 349.98 42.792 349.936 42.936 349.936C43.072 349.936 43.184 349.98 43.272 350.068C43.36 350.156 43.404 350.28 43.404 350.44V357.628H44.904Z" fill="#535261"/>
<path d="M103.096 357.628C103.24 357.628 103.352 357.664 103.432 357.736C103.512 357.808 103.552 357.908 103.552 358.036C103.552 358.316 103.4 358.456 103.096 358.456H98.392C98.256 358.456 98.144 358.416 98.056 358.336C97.968 358.248 97.924 358.144 97.924 358.024C97.924 357.872 97.98 357.74 98.092 357.628L100.984 354.448C101.384 354 101.672 353.6 101.848 353.248C102.032 352.888 102.124 352.528 102.124 352.168C102.124 351.704 101.988 351.348 101.716 351.1C101.452 350.852 101.076 350.728 100.588 350.728C100.204 350.728 99.836 350.8 99.484 350.944C99.132 351.08 98.78 351.292 98.428 351.58C98.308 351.676 98.196 351.724 98.092 351.724C98.004 351.724 97.928 351.684 97.864 351.604C97.8 351.516 97.768 351.412 97.768 351.292C97.768 351.124 97.832 350.988 97.96 350.884C98.288 350.58 98.688 350.34 99.16 350.164C99.632 349.988 100.116 349.9 100.612 349.9C101.372 349.9 101.976 350.1 102.424 350.5C102.88 350.9 103.108 351.44 103.108 352.12C103.108 352.608 102.996 353.076 102.772 353.524C102.556 353.972 102.196 354.472 101.692 355.024L99.292 357.628H103.096Z" fill="#535261"/>
<path d="M159.728 354.112C160.24 354.256 160.628 354.504 160.892 354.856C161.164 355.208 161.3 355.644 161.3 356.164C161.3 356.9 161.052 357.48 160.556 357.904C160.06 358.328 159.384 358.54 158.528 358.54C158.008 358.54 157.508 358.452 157.028 358.276C156.556 358.1 156.156 357.86 155.828 357.556C155.7 357.436 155.636 357.3 155.636 357.148C155.636 357.028 155.668 356.928 155.732 356.848C155.796 356.768 155.872 356.728 155.96 356.728C156.072 356.728 156.184 356.772 156.296 356.86C156.664 357.156 157.024 357.372 157.376 357.508C157.728 357.644 158.108 357.712 158.516 357.712C159.108 357.712 159.556 357.576 159.86 357.304C160.172 357.032 160.328 356.64 160.328 356.128C160.328 355.096 159.68 354.58 158.384 354.58H157.748C157.62 354.58 157.516 354.54 157.436 354.46C157.364 354.372 157.328 354.272 157.328 354.16C157.328 354.048 157.364 353.952 157.436 353.872C157.516 353.792 157.62 353.752 157.748 353.752H158.192C158.816 353.752 159.296 353.616 159.632 353.344C159.968 353.064 160.136 352.664 160.136 352.144C160.136 351.688 160 351.34 159.728 351.1C159.456 350.852 159.072 350.728 158.576 350.728C158.2 350.728 157.836 350.8 157.484 350.944C157.132 351.08 156.78 351.292 156.428 351.58C156.316 351.668 156.204 351.712 156.092 351.712C156.004 351.712 155.928 351.672 155.864 351.592C155.8 351.512 155.768 351.412 155.768 351.292C155.768 351.14 155.832 351.004 155.96 350.884C156.288 350.58 156.684 350.34 157.148 350.164C157.62 349.988 158.104 349.9 158.6 349.9C159.368 349.9 159.98 350.096 160.436 350.488C160.892 350.88 161.116 351.408 161.108 352.072C161.1 352.552 160.972 352.972 160.724 353.332C160.484 353.692 160.152 353.952 159.728 354.112Z" fill="#535261"/>
<path d="M219.396 355.804C219.54 355.804 219.652 355.844 219.732 355.924C219.812 355.996 219.852 356.092 219.852 356.212C219.852 356.484 219.7 356.62 219.396 356.62H218.496V358.012C218.496 358.172 218.448 358.296 218.352 358.384C218.264 358.472 218.148 358.516 218.004 358.516C217.86 358.516 217.744 358.472 217.656 358.384C217.568 358.296 217.524 358.172 217.524 358.012V356.62H213.972C213.828 356.62 213.716 356.58 213.636 356.5C213.556 356.42 213.516 356.32 213.516 356.2C213.516 356.088 213.56 355.964 213.648 355.828L217.572 350.152C217.684 350.008 217.828 349.936 218.004 349.936C218.14 349.936 218.256 349.98 218.352 350.068C218.448 350.156 218.496 350.28 218.496 350.44V355.804H219.396ZM214.632 355.804H217.524V351.64L214.632 355.804Z" fill="#535261"/>
<path d="M274.924 353.152C275.46 353.152 275.928 353.264 276.328 353.488C276.736 353.712 277.048 354.028 277.264 354.436C277.488 354.836 277.6 355.3 277.6 355.828C277.6 356.356 277.48 356.828 277.24 357.244C277 357.652 276.664 357.972 276.232 358.204C275.808 358.428 275.316 358.54 274.756 358.54C274.26 358.54 273.776 358.452 273.304 358.276C272.832 358.1 272.432 357.86 272.104 357.556C271.976 357.436 271.912 357.3 271.912 357.148C271.912 357.028 271.944 356.928 272.008 356.848C272.072 356.768 272.148 356.728 272.236 356.728C272.348 356.728 272.46 356.772 272.572 356.86C272.924 357.148 273.276 357.364 273.628 357.508C273.98 357.644 274.348 357.712 274.732 357.712C275.324 357.712 275.788 357.544 276.124 357.208C276.46 356.872 276.628 356.416 276.628 355.84C276.628 355.28 276.46 354.828 276.124 354.484C275.788 354.14 275.336 353.968 274.768 353.968C274.04 353.968 273.448 354.248 272.992 354.808C272.88 354.928 272.744 354.988 272.584 354.988C272.472 354.988 272.376 354.956 272.296 354.892C272.224 354.82 272.188 354.724 272.188 354.604V350.464C272.188 350.328 272.228 350.216 272.308 350.128C272.396 350.04 272.516 349.996 272.668 349.996H276.892C277.036 349.996 277.148 350.032 277.228 350.104C277.316 350.176 277.36 350.276 277.36 350.404C277.36 350.532 277.316 350.632 277.228 350.704C277.148 350.776 277.036 350.812 276.892 350.812H273.16V353.824C273.384 353.608 273.644 353.444 273.94 353.332C274.244 353.212 274.572 353.152 274.924 353.152Z" fill="#535261"/>
<path d="M332.948 353.14C333.46 353.14 333.916 353.252 334.316 353.476C334.716 353.7 335.028 354.016 335.252 354.424C335.476 354.832 335.588 355.3 335.588 355.828C335.588 356.348 335.472 356.816 335.24 357.232C335.008 357.648 334.684 357.972 334.268 358.204C333.852 358.436 333.384 358.552 332.864 358.552C331.84 358.552 331.048 358.196 330.488 357.484C329.936 356.772 329.66 355.756 329.66 354.436C329.66 353.492 329.788 352.68 330.044 352C330.3 351.32 330.672 350.8 331.16 350.44C331.648 350.08 332.228 349.9 332.9 349.9C333.356 349.9 333.808 349.988 334.256 350.164C334.712 350.34 335.1 350.58 335.42 350.884C335.556 351.012 335.624 351.148 335.624 351.292C335.624 351.412 335.592 351.512 335.528 351.592C335.464 351.672 335.388 351.712 335.3 351.712C335.188 351.712 335.072 351.668 334.952 351.58C334.256 351.012 333.58 350.728 332.924 350.728C332.212 350.728 331.656 351.052 331.256 351.7C330.856 352.348 330.656 353.256 330.656 354.424V354.58C330.84 354.132 331.136 353.78 331.544 353.524C331.96 353.268 332.428 353.14 332.948 353.14ZM332.816 357.724C333.36 357.724 333.796 357.552 334.124 357.208C334.452 356.864 334.616 356.408 334.616 355.84C334.616 355.272 334.448 354.82 334.112 354.484C333.784 354.14 333.348 353.968 332.804 353.968C332.252 353.968 331.8 354.144 331.448 354.496C331.104 354.84 330.932 355.288 330.932 355.84C330.932 356.4 331.104 356.856 331.448 357.208C331.8 357.552 332.256 357.724 332.816 357.724Z" fill="#535261"/>
<path d="M393.036 349.996C393.18 349.996 393.288 350.036 393.36 350.116C393.44 350.188 393.48 350.284 393.48 350.404C393.48 350.516 393.444 350.64 393.372 350.776L389.388 358.276C389.292 358.452 389.152 358.54 388.968 358.54C388.84 358.54 388.724 358.496 388.62 358.408C388.524 358.32 388.476 358.212 388.476 358.084C388.476 357.996 388.504 357.908 388.56 357.82L392.304 350.824H388.164C388.02 350.824 387.908 350.788 387.828 350.716C387.756 350.644 387.72 350.544 387.72 350.416C387.72 350.28 387.756 350.176 387.828 350.104C387.908 350.032 388.02 349.996 388.164 349.996H393.036Z" fill="#535261"/>
<path opacity="0.8" d="M450.064 354.112C450.56 354.264 450.944 354.524 451.216 354.892C451.496 355.26 451.636 355.7 451.636 356.212C451.636 356.94 451.372 357.512 450.844 357.928C450.316 358.336 449.568 358.54 448.6 358.54C447.632 358.54 446.884 358.336 446.356 357.928C445.828 357.512 445.564 356.94 445.564 356.212C445.564 355.692 445.704 355.248 445.984 354.88C446.264 354.512 446.652 354.256 447.148 354.112C446.724 353.952 446.388 353.7 446.14 353.356C445.892 353.012 445.768 352.608 445.768 352.144C445.768 351.456 446.016 350.912 446.512 350.512C447.016 350.104 447.712 349.9 448.6 349.9C449.488 349.9 450.18 350.104 450.676 350.512C451.18 350.912 451.432 351.456 451.432 352.144C451.432 352.608 451.308 353.016 451.06 353.368C450.812 353.712 450.48 353.96 450.064 354.112ZM446.74 352.216C446.74 352.712 446.896 353.092 447.208 353.356C447.528 353.62 447.992 353.752 448.6 353.752C449.208 353.752 449.668 353.62 449.98 353.356C450.3 353.092 450.46 352.712 450.46 352.216C450.46 351.744 450.3 351.376 449.98 351.112C449.668 350.848 449.208 350.716 448.6 350.716C447.992 350.716 447.528 350.848 447.208 351.112C446.896 351.376 446.74 351.744 446.74 352.216ZM448.6 357.724C449.976 357.724 450.664 357.2 450.664 356.152C450.664 355.104 449.976 354.58 448.6 354.58C447.224 354.58 446.536 355.104 446.536 356.152C446.536 357.2 447.224 357.724 448.6 357.724Z" fill="#535261"/>
<path d="M506.336 349.9C507.36 349.9 508.148 350.256 508.7 350.968C509.26 351.68 509.54 352.696 509.54 354.016C509.54 354.96 509.412 355.772 509.156 356.452C508.9 357.132 508.528 357.652 508.04 358.012C507.552 358.372 506.972 358.552 506.3 358.552C505.844 358.552 505.388 358.464 504.932 358.288C504.484 358.112 504.1 357.872 503.78 357.568C503.644 357.44 503.576 357.304 503.576 357.16C503.576 357.04 503.608 356.94 503.672 356.86C503.736 356.78 503.812 356.74 503.9 356.74C504.012 356.74 504.128 356.784 504.248 356.872C504.944 357.44 505.62 357.724 506.276 357.724C506.988 357.724 507.544 357.4 507.944 356.752C508.344 356.104 508.544 355.196 508.544 354.028V353.872C508.36 354.32 508.06 354.672 507.644 354.928C507.236 355.184 506.772 355.312 506.252 355.312C505.74 355.312 505.284 355.2 504.884 354.976C504.484 354.752 504.172 354.436 503.948 354.028C503.724 353.62 503.612 353.152 503.612 352.624C503.612 352.104 503.728 351.636 503.96 351.22C504.192 350.804 504.516 350.48 504.932 350.248C505.348 350.016 505.816 349.9 506.336 349.9ZM506.396 354.484C506.948 354.484 507.396 354.312 507.74 353.968C508.092 353.616 508.268 353.164 508.268 352.612C508.268 352.052 508.092 351.6 507.74 351.256C507.396 350.904 506.944 350.728 506.384 350.728C505.84 350.728 505.404 350.9 505.076 351.244C504.748 351.588 504.584 352.044 504.584 352.612C504.584 353.18 504.748 353.636 505.076 353.98C505.412 354.316 505.852 354.484 506.396 354.484Z" fill="#535261"/>
<path d="M566.904 357.628C567.048 357.628 567.16 357.664 567.24 357.736C567.32 357.808 567.36 357.908 567.36 358.036C567.36 358.172 567.32 358.276 567.24 358.348C567.168 358.42 567.056 358.456 566.904 358.456H562.932C562.78 358.456 562.664 358.42 562.584 358.348C562.512 358.276 562.476 358.172 562.476 358.036C562.476 357.908 562.516 357.808 562.596 357.736C562.676 357.664 562.788 357.628 562.932 357.628H564.42V351.196L563.112 352.048C563.048 352.088 562.984 352.108 562.92 352.108C562.808 352.108 562.708 352.056 562.62 351.952C562.54 351.848 562.5 351.736 562.5 351.616C562.5 351.448 562.564 351.328 562.692 351.256L564.516 350.068C564.652 349.98 564.792 349.936 564.936 349.936C565.072 349.936 565.184 349.98 565.272 350.068C565.36 350.156 565.404 350.28 565.404 350.44V357.628H566.904ZM571.795 358.552C570.827 358.552 570.091 358.184 569.587 357.448C569.083 356.712 568.831 355.64 568.831 354.232C568.831 352.816 569.083 351.74 569.587 351.004C570.091 350.268 570.827 349.9 571.795 349.9C572.763 349.9 573.499 350.268 574.003 351.004C574.507 351.732 574.759 352.804 574.759 354.22C574.759 355.636 574.507 356.712 574.003 357.448C573.499 358.184 572.763 358.552 571.795 358.552ZM571.795 357.724C572.467 357.724 572.963 357.44 573.283 356.872C573.603 356.304 573.763 355.42 573.763 354.22C573.763 353.012 573.603 352.128 573.283 351.568C572.971 351.008 572.475 350.728 571.795 350.728C571.123 350.728 570.627 351.012 570.307 351.58C569.987 352.14 569.827 353.02 569.827 354.22C569.827 355.42 569.987 356.304 570.307 356.872C570.627 357.44 571.123 357.724 571.795 357.724Z" fill="#535261"/>
<path d="M631.904 357.628C632.048 357.628 632.16 357.664 632.24 357.736C632.32 357.808 632.36 357.908 632.36 358.036C632.36 358.172 632.32 358.276 632.24 358.348C632.168 358.42 632.056 358.456 631.904 358.456H627.932C627.78 358.456 627.664 358.42 627.584 358.348C627.512 358.276 627.476 358.172 627.476 358.036C627.476 357.908 627.516 357.808 627.596 357.736C627.676 357.664 627.788 357.628 627.932 357.628H629.42V351.196L628.112 352.048C628.048 352.088 627.984 352.108 627.92 352.108C627.808 352.108 627.708 352.056 627.62 351.952C627.54 351.848 627.5 351.736 627.5 351.616C627.5 351.448 627.564 351.328 627.692 351.256L629.516 350.068C629.652 349.98 629.792 349.936 629.936 349.936C630.072 349.936 630.184 349.98 630.272 350.068C630.36 350.156 630.404 350.28 630.404 350.44V357.628H631.904ZM639.099 357.628C639.243 357.628 639.355 357.664 639.435 357.736C639.515 357.808 639.555 357.908 639.555 358.036C639.555 358.172 639.515 358.276 639.435 358.348C639.363 358.42 639.251 358.456 639.099 358.456H635.127C634.975 358.456 634.859 358.42 634.779 358.348C634.707 358.276 634.671 358.172 634.671 358.036C634.671 357.908 634.711 357.808 634.791 357.736C634.871 357.664 634.983 357.628 635.127 357.628H636.615V351.196L635.307 352.048C635.243 352.088 635.179 352.108 635.115 352.108C635.003 352.108 634.903 352.056 634.815 351.952C634.735 351.848 634.695 351.736 634.695 351.616C634.695 351.448 634.759 351.328 634.887 351.256L636.711 350.068C636.847 349.98 636.987 349.936 637.131 349.936C637.267 349.936 637.379 349.98 637.467 350.068C637.555 350.156 637.599 350.28 637.599 350.44V357.628H639.099Z" fill="#535261"/>
<path d="M696.904 357.628C697.048 357.628 697.16 357.664 697.24 357.736C697.32 357.808 697.36 357.908 697.36 358.036C697.36 358.172 697.32 358.276 697.24 358.348C697.168 358.42 697.056 358.456 696.904 358.456H692.932C692.78 358.456 692.664 358.42 692.584 358.348C692.512 358.276 692.476 358.172 692.476 358.036C692.476 357.908 692.516 357.808 692.596 357.736C692.676 357.664 692.788 357.628 692.932 357.628H694.42V351.196L693.112 352.048C693.048 352.088 692.984 352.108 692.92 352.108C692.808 352.108 692.708 352.056 692.62 351.952C692.54 351.848 692.5 351.736 692.5 351.616C692.5 351.448 692.564 351.328 692.692 351.256L694.516 350.068C694.652 349.98 694.792 349.936 694.936 349.936C695.072 349.936 695.184 349.98 695.272 350.068C695.36 350.156 695.404 350.28 695.404 350.44V357.628H696.904ZM704.291 357.628C704.435 357.628 704.547 357.664 704.627 357.736C704.707 357.808 704.747 357.908 704.747 358.036C704.747 358.316 704.595 358.456 704.291 358.456H699.587C699.451 358.456 699.339 358.416 699.251 358.336C699.163 358.248 699.119 358.144 699.119 358.024C699.119 357.872 699.175 357.74 699.287 357.628L702.179 354.448C702.579 354 702.867 353.6 703.043 353.248C703.227 352.888 703.319 352.528 703.319 352.168C703.319 351.704 703.183 351.348 702.911 351.1C702.647 350.852 702.271 350.728 701.783 350.728C701.399 350.728 701.031 350.8 700.679 350.944C700.327 351.08 699.975 351.292 699.623 351.58C699.503 351.676 699.391 351.724 699.287 351.724C699.199 351.724 699.123 351.684 699.059 351.604C698.995 351.516 698.963 351.412 698.963 351.292C698.963 351.124 699.027 350.988 699.155 350.884C699.483 350.58 699.883 350.34 700.355 350.164C700.827 349.988 701.311 349.9 701.807 349.9C702.567 349.9 703.171 350.1 703.619 350.5C704.075 350.9 704.303 351.44 704.303 352.12C704.303 352.608 704.191 353.076 703.967 353.524C703.751 353.972 703.391 354.472 702.887 355.024L700.487 357.628H704.291Z" fill="#535261"/>
</g>
<defs>
<linearGradient id="paint0_linear_68087_3863" x1="391.692" y1="123" x2="391.692" y2="344.559" gradientUnits="userSpaceOnUse">
<stop stop-color="#CEDDFF"/>
<stop offset="1" stop-color="#CEDDFF" stop-opacity="0"/>
</linearGradient>
<clipPath id="clip0_68087_3863">
<rect width="738.733" height="373" fill="white" transform="translate(0 2)"/>
</clipPath>
</defs>
</svg>
