<svg width="757" height="375" viewBox="0 0 757 375" fill="none" xmlns="http://www.w3.org/2000/svg">
<g clip-path="url(#clip0_68087_206)">
<rect y="295" width="739" height="1" fill="#EAEAEC"/>
<rect y="246" width="739" height="1" fill="#EAEAEC"/>
<rect y="197" width="739" height="1" fill="#EAEAEC"/>
<rect y="148" width="739" height="1" fill="#EAEAEC"/>
<rect y="99" width="739" height="1" fill="#EAEAEC"/>
<rect y="50" width="739" height="1" fill="#EAEAEC"/>
<rect y="344" width="739" height="1" fill="#EAEAEC"/>
<path d="M52.4832 199.748L43.3834 211V344.559H740V157.477C721.8 165.903 716.77 167.388 698.571 160.977C680.371 154.565 662.171 136.615 643.972 128.347C625.772 120.078 607.572 121.49 589.373 131.959C571.173 142.427 552.973 161.953 534.774 163.487C516.574 165.022 498.375 148.566 480.175 142.185C461.975 135.803 443.776 139.496 425.576 150.249C407.376 161.002 389.177 178.815 370.977 179.505C352.777 180.196 334.578 163.762 316.378 164.333C298.178 164.904 279.979 182.479 261.779 180.843C243.579 179.206 225.38 158.359 207.18 145.706C188.981 133.052 170.781 128.594 152.581 129.59C134.382 130.587 116.182 137.039 97.9823 151.516C79.7827 165.994 61.583 188.497 52.4832 199.748Z" fill="url(#paint0_linear_68087_206)"/>
<path d="M43.3666 211L52.4453 199.748C61.524 188.497 79.6814 165.994 97.8388 151.516C115.996 137.039 134.154 130.587 152.311 129.59C170.468 128.594 188.626 133.052 206.783 145.706C224.941 158.359 243.098 179.206 261.256 180.843C279.413 182.479 297.57 164.904 315.728 164.333C333.885 163.762 352.043 180.196 370.2 179.505C388.357 178.815 406.515 161.002 424.672 150.249C442.83 139.496 460.987 135.803 479.144 142.185C497.302 148.566 515.459 165.022 533.617 163.487C551.774 161.953 569.931 142.427 588.089 131.959C606.246 121.49 624.404 120.078 642.561 128.347C660.719 136.615 678.876 154.565 697.033 160.977C715.191 167.388 720.209 165.903 738.367 157.477" stroke="#5185F7" stroke-width="2" stroke-linecap="round"/>
<line x1="466" y1="139.281" x2="465.775" y2="344.001" stroke="#5185F7" stroke-dasharray="2 2"/>
<path d="M304.904 356.172C305.048 356.172 305.16 356.208 305.24 356.28C305.32 356.352 305.36 356.452 305.36 356.58C305.36 356.716 305.32 356.82 305.24 356.892C305.168 356.964 305.056 357 304.904 357H300.932C300.78 357 300.664 356.964 300.584 356.892C300.512 356.82 300.476 356.716 300.476 356.58C300.476 356.452 300.516 356.352 300.596 356.28C300.676 356.208 300.788 356.172 300.932 356.172H302.42V349.74L301.112 350.592C301.048 350.632 300.984 350.652 300.92 350.652C300.808 350.652 300.708 350.6 300.62 350.496C300.54 350.392 300.5 350.28 300.5 350.16C300.5 349.992 300.564 349.872 300.692 349.8L302.516 348.612C302.652 348.524 302.792 348.48 302.936 348.48C303.072 348.48 303.184 348.524 303.272 348.612C303.36 348.7 303.404 348.824 303.404 348.984V356.172H304.904ZM310.923 352.656C311.435 352.8 311.823 353.048 312.087 353.4C312.359 353.752 312.495 354.188 312.495 354.708C312.495 355.444 312.247 356.024 311.751 356.448C311.255 356.872 310.579 357.084 309.723 357.084C309.203 357.084 308.703 356.996 308.223 356.82C307.751 356.644 307.351 356.404 307.023 356.1C306.895 355.98 306.831 355.844 306.831 355.692C306.831 355.572 306.863 355.472 306.927 355.392C306.991 355.312 307.067 355.272 307.155 355.272C307.267 355.272 307.379 355.316 307.491 355.404C307.859 355.7 308.219 355.916 308.571 356.052C308.923 356.188 309.303 356.256 309.711 356.256C310.303 356.256 310.751 356.12 311.055 355.848C311.367 355.576 311.523 355.184 311.523 354.672C311.523 353.64 310.875 353.124 309.579 353.124H308.943C308.815 353.124 308.711 353.084 308.631 353.004C308.559 352.916 308.523 352.816 308.523 352.704C308.523 352.592 308.559 352.496 308.631 352.416C308.711 352.336 308.815 352.296 308.943 352.296H309.387C310.011 352.296 310.491 352.16 310.827 351.888C311.163 351.608 311.331 351.208 311.331 350.688C311.331 350.232 311.195 349.884 310.923 349.644C310.651 349.396 310.267 349.272 309.771 349.272C309.395 349.272 309.031 349.344 308.679 349.488C308.327 349.624 307.975 349.836 307.623 350.124C307.511 350.212 307.399 350.256 307.287 350.256C307.199 350.256 307.123 350.216 307.059 350.136C306.995 350.056 306.963 349.956 306.963 349.836C306.963 349.684 307.027 349.548 307.155 349.428C307.483 349.124 307.879 348.884 308.343 348.708C308.815 348.532 309.299 348.444 309.795 348.444C310.563 348.444 311.175 348.64 311.631 349.032C312.087 349.424 312.311 349.952 312.303 350.616C312.295 351.096 312.167 351.516 311.919 351.876C311.679 352.236 311.347 352.496 310.923 352.656Z" fill="#535261"/>
<path d="M38.6 357.096C37.632 357.096 36.896 356.728 36.392 355.992C35.888 355.256 35.636 354.184 35.636 352.776C35.636 351.36 35.888 350.284 36.392 349.548C36.896 348.812 37.632 348.444 38.6 348.444C39.568 348.444 40.304 348.812 40.808 349.548C41.312 350.276 41.564 351.348 41.564 352.764C41.564 354.18 41.312 355.256 40.808 355.992C40.304 356.728 39.568 357.096 38.6 357.096ZM38.6 356.268C39.272 356.268 39.768 355.984 40.088 355.416C40.408 354.848 40.568 353.964 40.568 352.764C40.568 351.556 40.408 350.672 40.088 350.112C39.776 349.552 39.28 349.272 38.6 349.272C37.928 349.272 37.432 349.556 37.112 350.124C36.792 350.684 36.632 351.564 36.632 352.764C36.632 353.964 36.792 354.848 37.112 355.416C37.432 355.984 37.928 356.268 38.6 356.268ZM48.0993 356.172C48.2433 356.172 48.3553 356.208 48.4353 356.28C48.5153 356.352 48.5553 356.452 48.5553 356.58C48.5553 356.716 48.5153 356.82 48.4353 356.892C48.3633 356.964 48.2513 357 48.0993 357H44.1273C43.9753 357 43.8593 356.964 43.7793 356.892C43.7073 356.82 43.6713 356.716 43.6713 356.58C43.6713 356.452 43.7113 356.352 43.7913 356.28C43.8713 356.208 43.9833 356.172 44.1273 356.172H45.6153V349.74L44.3073 350.592C44.2433 350.632 44.1793 350.652 44.1153 350.652C44.0033 350.652 43.9033 350.6 43.8153 350.496C43.7353 350.392 43.6953 350.28 43.6953 350.16C43.6953 349.992 43.7593 349.872 43.8873 349.8L45.7113 348.612C45.8473 348.524 45.9873 348.48 46.1313 348.48C46.2673 348.48 46.3793 348.524 46.4673 348.612C46.5553 348.7 46.5993 348.824 46.5993 348.984V356.172H48.0993Z" fill="#535261"/>
<path d="M463.904 356.172C464.048 356.172 464.16 356.208 464.24 356.28C464.32 356.352 464.36 356.452 464.36 356.58C464.36 356.716 464.32 356.82 464.24 356.892C464.168 356.964 464.056 357 463.904 357H459.932C459.78 357 459.664 356.964 459.584 356.892C459.512 356.82 459.476 356.716 459.476 356.58C459.476 356.452 459.516 356.352 459.596 356.28C459.676 356.208 459.788 356.172 459.932 356.172H461.42V349.74L460.112 350.592C460.048 350.632 459.984 350.652 459.92 350.652C459.808 350.652 459.708 350.6 459.62 350.496C459.54 350.392 459.5 350.28 459.5 350.16C459.5 349.992 459.564 349.872 459.692 349.8L461.516 348.612C461.652 348.524 461.792 348.48 461.936 348.48C462.072 348.48 462.184 348.524 462.272 348.612C462.36 348.7 462.404 348.824 462.404 348.984V356.172H463.904ZM468.531 348.444C469.555 348.444 470.343 348.8 470.895 349.512C471.455 350.224 471.735 351.24 471.735 352.56C471.735 353.504 471.607 354.316 471.351 354.996C471.095 355.676 470.723 356.196 470.235 356.556C469.747 356.916 469.167 357.096 468.495 357.096C468.039 357.096 467.583 357.008 467.127 356.832C466.679 356.656 466.295 356.416 465.975 356.112C465.839 355.984 465.771 355.848 465.771 355.704C465.771 355.584 465.803 355.484 465.867 355.404C465.931 355.324 466.007 355.284 466.095 355.284C466.207 355.284 466.323 355.328 466.443 355.416C467.139 355.984 467.815 356.268 468.471 356.268C469.183 356.268 469.739 355.944 470.139 355.296C470.539 354.648 470.739 353.74 470.739 352.572V352.416C470.555 352.864 470.255 353.216 469.839 353.472C469.431 353.728 468.967 353.856 468.447 353.856C467.935 353.856 467.479 353.744 467.079 353.52C466.679 353.296 466.367 352.98 466.143 352.572C465.919 352.164 465.807 351.696 465.807 351.168C465.807 350.648 465.923 350.18 466.155 349.764C466.387 349.348 466.711 349.024 467.127 348.792C467.543 348.56 468.011 348.444 468.531 348.444ZM468.591 353.028C469.143 353.028 469.591 352.856 469.935 352.512C470.287 352.16 470.463 351.708 470.463 351.156C470.463 350.596 470.287 350.144 469.935 349.8C469.591 349.448 469.139 349.272 468.579 349.272C468.035 349.272 467.599 349.444 467.271 349.788C466.943 350.132 466.779 350.588 466.779 351.156C466.779 351.724 466.943 352.18 467.271 352.524C467.607 352.86 468.047 353.028 468.591 353.028Z" fill="#535261"/>
<path d="M695.728 352.656C696.24 352.8 696.628 353.048 696.892 353.4C697.164 353.752 697.3 354.188 697.3 354.708C697.3 355.444 697.052 356.024 696.556 356.448C696.06 356.872 695.384 357.084 694.528 357.084C694.008 357.084 693.508 356.996 693.028 356.82C692.556 356.644 692.156 356.404 691.828 356.1C691.7 355.98 691.636 355.844 691.636 355.692C691.636 355.572 691.668 355.472 691.732 355.392C691.796 355.312 691.872 355.272 691.96 355.272C692.072 355.272 692.184 355.316 692.296 355.404C692.664 355.7 693.024 355.916 693.376 356.052C693.728 356.188 694.108 356.256 694.516 356.256C695.108 356.256 695.556 356.12 695.86 355.848C696.172 355.576 696.328 355.184 696.328 354.672C696.328 353.64 695.68 353.124 694.384 353.124H693.748C693.62 353.124 693.516 353.084 693.436 353.004C693.364 352.916 693.328 352.816 693.328 352.704C693.328 352.592 693.364 352.496 693.436 352.416C693.516 352.336 693.62 352.296 693.748 352.296H694.192C694.816 352.296 695.296 352.16 695.632 351.888C695.968 351.608 696.136 351.208 696.136 350.688C696.136 350.232 696 349.884 695.728 349.644C695.456 349.396 695.072 349.272 694.576 349.272C694.2 349.272 693.836 349.344 693.484 349.488C693.132 349.624 692.78 349.836 692.428 350.124C692.316 350.212 692.204 350.256 692.092 350.256C692.004 350.256 691.928 350.216 691.864 350.136C691.8 350.056 691.768 349.956 691.768 349.836C691.768 349.684 691.832 349.548 691.96 349.428C692.288 349.124 692.684 348.884 693.148 348.708C693.62 348.532 694.104 348.444 694.6 348.444C695.368 348.444 695.98 348.64 696.436 349.032C696.892 349.424 697.116 349.952 697.108 350.616C697.1 351.096 696.972 351.516 696.724 351.876C696.484 352.236 696.152 352.496 695.728 352.656ZM704.099 356.172C704.243 356.172 704.355 356.208 704.435 356.28C704.515 356.352 704.555 356.452 704.555 356.58C704.555 356.716 704.515 356.82 704.435 356.892C704.363 356.964 704.251 357 704.099 357H700.127C699.975 357 699.859 356.964 699.779 356.892C699.707 356.82 699.671 356.716 699.671 356.58C699.671 356.452 699.711 356.352 699.791 356.28C699.871 356.208 699.983 356.172 700.127 356.172H701.615V349.74L700.307 350.592C700.243 350.632 700.179 350.652 700.115 350.652C700.003 350.652 699.903 350.6 699.815 350.496C699.735 350.392 699.695 350.28 699.695 350.16C699.695 349.992 699.759 349.872 699.887 349.8L701.711 348.612C701.847 348.524 701.987 348.48 702.131 348.48C702.267 348.48 702.379 348.524 702.467 348.612C702.555 348.7 702.599 348.824 702.599 348.984V356.172H704.099Z" fill="#535261"/>
</g>
<defs>
<linearGradient id="paint0_linear_68087_206" x1="391.692" y1="123" x2="391.692" y2="344.559" gradientUnits="userSpaceOnUse">
<stop stop-color="#CEDDFF"/>
<stop offset="1" stop-color="#CEDDFF" stop-opacity="0"/>
</linearGradient>
<clipPath id="clip0_68087_206">
<rect width="738.733" height="373" fill="white" transform="translate(0 2)"/>
</clipPath>
</defs>
</svg>
