<svg width="13" height="13" viewBox="0 0 13 13" fill="none" xmlns="http://www.w3.org/2000/svg">
<path fill-rule="evenodd" clip-rule="evenodd" d="M6.80098 3.52148C6.70152 3.52148 6.60614 3.56099 6.53581 3.63132C6.46549 3.70165 6.42598 3.79703 6.42598 3.89648L6.42598 8.24124L4.81648 6.63098C4.78161 6.59612 4.74022 6.56846 4.69467 6.54959C4.64911 6.53072 4.60029 6.52101 4.55098 6.52101C4.50167 6.52101 4.45285 6.53072 4.40729 6.54959C4.36174 6.56846 4.32034 6.59612 4.28548 6.63098C4.25061 6.66585 4.22296 6.70724 4.20409 6.7528C4.18522 6.79835 4.17551 6.84718 4.17551 6.89648C4.17551 6.94579 4.18522 6.99462 4.20409 7.04017C4.22296 7.08573 4.25061 7.12712 4.28548 7.16198L6.53548 9.41198C6.57031 9.44691 6.6117 9.47461 6.65725 9.49352C6.70281 9.51242 6.75165 9.52216 6.80098 9.52216C6.8503 9.52216 6.89915 9.51242 6.9447 9.49352C6.99026 9.47461 7.03165 9.44691 7.06648 9.41198L9.31648 7.16198C9.35135 7.12712 9.379 7.08573 9.39787 7.04017C9.41674 6.99462 9.42645 6.94579 9.42645 6.89648C9.42645 6.84718 9.41674 6.79835 9.39787 6.7528C9.379 6.70724 9.35135 6.66585 9.31648 6.63098C9.24606 6.56057 9.15056 6.52101 9.05098 6.52101C9.00167 6.52101 8.95285 6.53072 8.90729 6.54959C8.86174 6.56846 8.82034 6.59612 8.78548 6.63098L7.17598 8.24123L7.17598 3.89648C7.17598 3.79703 7.13647 3.70165 7.06614 3.63132C6.99582 3.56099 6.90043 3.52148 6.80098 3.52148Z" fill="#E73F3F"/>
</svg>
