<svg width="60" height="60" viewBox="0 0 60 60" fill="none" xmlns="http://www.w3.org/2000/svg">
<path d="M30 1.25209C30 0.56058 30.5609 -0.00272752 31.2518 0.0261201C36.8261 0.258866 42.2344 2.04233 46.8625 5.18758C51.8363 8.5678 55.6795 13.3648 57.8933 18.9563C60.1071 24.5477 60.5894 30.6754 59.2775 36.5443C57.9656 42.4132 54.9202 47.7524 50.5364 51.8691C46.1526 55.9857 40.6327 58.6899 34.693 59.6306C28.7533 60.5714 22.668 59.7053 17.2266 57.1448C11.7852 54.5843 7.23898 50.4475 4.17774 45.2712C1.32929 40.4548 -0.111064 34.9452 0.00666527 29.3673C0.0212572 28.6759 0.618672 28.1515 1.30882 28.1949C1.99896 28.2383 2.52025 28.8332 2.50828 29.5246C2.42044 34.6012 3.74031 39.6122 6.33319 43.9965C9.1389 48.7407 13.3057 52.5322 18.2928 54.879C23.28 57.2257 28.8574 58.0195 34.3013 57.1573C39.7452 56.2951 44.8043 53.8166 48.8222 50.0436C52.8401 46.2705 55.6313 41.377 56.8336 35.998C58.036 30.619 57.594 25.0028 55.565 19.8781C53.536 14.7534 50.0136 10.3568 45.4549 7.25874C41.2421 4.39568 36.3239 2.76378 31.2518 2.53268C30.561 2.50121 30 1.9436 30 1.25209Z" fill="#4277FF"/>
</svg>
