<svg width="60" height="60" viewBox="0 0 60 60" fill="none" xmlns="http://www.w3.org/2000/svg">
<path d="M30 1.25209C30 0.56058 30.5609 -0.0027286 31.2518 0.0261127C37.6258 0.292188 43.7615 2.58475 48.7573 6.58709C54.0793 10.8508 57.7899 16.8006 59.2775 23.4557C60.7651 30.1108 59.9409 37.0742 56.9408 43.1982C53.9407 49.3222 48.9437 54.2413 42.7734 57.1448C36.603 60.0484 29.6276 60.763 22.9966 59.1711C16.3657 57.5791 10.475 53.7756 6.29535 48.3872C2.11571 42.9989 -0.103415 36.3473 0.00370115 29.5288C0.104249 23.1283 2.2489 16.9393 6.10682 11.8584C6.525 11.3077 7.31654 11.2346 7.84936 11.6754C8.38218 12.1162 8.45426 12.9038 8.03818 13.4561C4.54199 18.0971 2.59918 23.7369 2.50757 29.5681C2.4094 35.8175 4.44329 41.9138 8.27404 46.8524C12.1048 51.791 17.5038 55.277 23.5812 56.7361C29.6587 58.1952 36.0519 57.5401 41.7071 54.879C47.3624 52.2178 51.9423 47.7093 54.692 42.0965C57.4417 36.4837 58.1971 30.1016 56.8336 24.002C55.4702 17.9024 52.0694 12.4493 47.1916 8.54143C42.6401 4.89504 37.0562 2.79709 31.2517 2.53267C30.5609 2.50121 30 1.9436 30 1.25209Z" fill="#35C75A"/>
</svg>
