<svg width="16" height="15" viewBox="0 0 16 15" fill="none" xmlns="http://www.w3.org/2000/svg">
<path d="M14.7704 5.7304C14.7704 7.04284 14.0591 8.22267 12.9266 9.04368C12.8874 9.07098 12.8658 9.11778 12.8639 9.16459L12.8149 10.4419C12.809 10.6135 12.6189 10.713 12.4739 10.6213L11.3864 9.94074C11.3864 9.94074 11.3864 9.94074 11.3845 9.94074C11.3218 9.89978 11.2453 9.88808 11.1748 9.90954C10.5282 10.1104 9.82472 10.2216 9.08797 10.2216C9.07817 10.2216 9.06837 10.2216 9.05857 10.2216C9.07817 10.0928 9.08797 9.96219 9.08797 9.82958C9.08797 7.99841 7.2108 6.51436 4.89472 6.51436C4.41857 6.51436 3.96201 6.57676 3.53485 6.69182C3.44863 6.38175 3.40356 6.05802 3.40356 5.7265C3.40356 3.24398 5.94695 1.2334 9.08601 1.2334C12.227 1.2373 14.7704 3.24983 14.7704 5.7304Z" stroke="#4277FF" stroke-width="1.10526" stroke-miterlimit="10"/>
<path d="M3.53675 6.69531C1.88884 7.14189 0.703369 8.37828 0.703369 9.83308C0.703369 10.8003 1.22851 11.6721 2.06324 12.2785C2.09263 12.3 2.1083 12.3331 2.11026 12.3682L2.14553 13.3102C2.14945 13.4369 2.29053 13.5091 2.3983 13.4428L3.20168 12.9396C3.20756 12.9357 3.2154 12.9299 3.22128 12.926C3.25067 12.9026 3.28986 12.8948 3.32513 12.9065C3.81108 13.0625 4.34013 13.1483 4.89662 13.1483C7.04419 13.1483 8.81555 11.871 9.06048 10.2251" stroke="#4277FF" stroke-width="1.10526" stroke-miterlimit="10"/>
</svg>
